G04 #@! TF.GenerationSoftware,KiCad,Pcbnew,8.0.7-8.0.7-0~ubuntu22.04.1*
G04 #@! TF.CreationDate,2025-01-18T20:22:17+01:00*
G04 #@! TF.ProjectId,pinchito_uesc,70696e63-6869-4746-9f5f-756573632e6b,rev?*
G04 #@! TF.SameCoordinates,Original*
G04 #@! TF.FileFunction,Legend,Top*
G04 #@! TF.FilePolarity,Positive*
%FSLAX46Y46*%
G04 Gerber Fmt 4.6, Leading zero omitted, Abs format (unit mm)*
G04 Created by KiCad (PCBNEW 8.0.7-8.0.7-0~ubuntu22.04.1) date 2025-01-18 20:22:17*
%MOMM*%
%LPD*%
G01*
G04 APERTURE LIST*
%ADD10C,0.150000*%
%ADD11C,0.300000*%
%ADD12C,0.250000*%
%ADD13C,0.120000*%
G04 APERTURE END LIST*
D10*
X5559580Y-2366666D02*
X5607200Y-2414285D01*
X5607200Y-2414285D02*
X5654819Y-2557142D01*
X5654819Y-2557142D02*
X5654819Y-2652380D01*
X5654819Y-2652380D02*
X5607200Y-2795237D01*
X5607200Y-2795237D02*
X5511961Y-2890475D01*
X5511961Y-2890475D02*
X5416723Y-2938094D01*
X5416723Y-2938094D02*
X5226247Y-2985713D01*
X5226247Y-2985713D02*
X5083390Y-2985713D01*
X5083390Y-2985713D02*
X4892914Y-2938094D01*
X4892914Y-2938094D02*
X4797676Y-2890475D01*
X4797676Y-2890475D02*
X4702438Y-2795237D01*
X4702438Y-2795237D02*
X4654819Y-2652380D01*
X4654819Y-2652380D02*
X4654819Y-2557142D01*
X4654819Y-2557142D02*
X4702438Y-2414285D01*
X4702438Y-2414285D02*
X4750057Y-2366666D01*
X5654819Y-1414285D02*
X5654819Y-1985713D01*
X5654819Y-1699999D02*
X4654819Y-1699999D01*
X4654819Y-1699999D02*
X4797676Y-1795237D01*
X4797676Y-1795237D02*
X4892914Y-1890475D01*
X4892914Y-1890475D02*
X4940533Y-1985713D01*
X8633333Y-6754819D02*
X8300000Y-6278628D01*
X8061905Y-6754819D02*
X8061905Y-5754819D01*
X8061905Y-5754819D02*
X8442857Y-5754819D01*
X8442857Y-5754819D02*
X8538095Y-5802438D01*
X8538095Y-5802438D02*
X8585714Y-5850057D01*
X8585714Y-5850057D02*
X8633333Y-5945295D01*
X8633333Y-5945295D02*
X8633333Y-6088152D01*
X8633333Y-6088152D02*
X8585714Y-6183390D01*
X8585714Y-6183390D02*
X8538095Y-6231009D01*
X8538095Y-6231009D02*
X8442857Y-6278628D01*
X8442857Y-6278628D02*
X8061905Y-6278628D01*
X9538095Y-5754819D02*
X9061905Y-5754819D01*
X9061905Y-5754819D02*
X9014286Y-6231009D01*
X9014286Y-6231009D02*
X9061905Y-6183390D01*
X9061905Y-6183390D02*
X9157143Y-6135771D01*
X9157143Y-6135771D02*
X9395238Y-6135771D01*
X9395238Y-6135771D02*
X9490476Y-6183390D01*
X9490476Y-6183390D02*
X9538095Y-6231009D01*
X9538095Y-6231009D02*
X9585714Y-6326247D01*
X9585714Y-6326247D02*
X9585714Y-6564342D01*
X9585714Y-6564342D02*
X9538095Y-6659580D01*
X9538095Y-6659580D02*
X9490476Y-6707200D01*
X9490476Y-6707200D02*
X9395238Y-6754819D01*
X9395238Y-6754819D02*
X9157143Y-6754819D01*
X9157143Y-6754819D02*
X9061905Y-6707200D01*
X9061905Y-6707200D02*
X9014286Y-6659580D01*
X95154761Y23419943D02*
X95059523Y23467562D01*
X95059523Y23467562D02*
X94964285Y23562800D01*
X94964285Y23562800D02*
X94821428Y23705658D01*
X94821428Y23705658D02*
X94726190Y23753277D01*
X94726190Y23753277D02*
X94630952Y23753277D01*
X94678571Y23515181D02*
X94583333Y23562800D01*
X94583333Y23562800D02*
X94488095Y23658039D01*
X94488095Y23658039D02*
X94440476Y23848515D01*
X94440476Y23848515D02*
X94440476Y24181848D01*
X94440476Y24181848D02*
X94488095Y24372324D01*
X94488095Y24372324D02*
X94583333Y24467562D01*
X94583333Y24467562D02*
X94678571Y24515181D01*
X94678571Y24515181D02*
X94869047Y24515181D01*
X94869047Y24515181D02*
X94964285Y24467562D01*
X94964285Y24467562D02*
X95059523Y24372324D01*
X95059523Y24372324D02*
X95107142Y24181848D01*
X95107142Y24181848D02*
X95107142Y23848515D01*
X95107142Y23848515D02*
X95059523Y23658039D01*
X95059523Y23658039D02*
X94964285Y23562800D01*
X94964285Y23562800D02*
X94869047Y23515181D01*
X94869047Y23515181D02*
X94678571Y23515181D01*
X96011904Y24515181D02*
X95535714Y24515181D01*
X95535714Y24515181D02*
X95488095Y24038991D01*
X95488095Y24038991D02*
X95535714Y24086610D01*
X95535714Y24086610D02*
X95630952Y24134229D01*
X95630952Y24134229D02*
X95869047Y24134229D01*
X95869047Y24134229D02*
X95964285Y24086610D01*
X95964285Y24086610D02*
X96011904Y24038991D01*
X96011904Y24038991D02*
X96059523Y23943753D01*
X96059523Y23943753D02*
X96059523Y23705658D01*
X96059523Y23705658D02*
X96011904Y23610420D01*
X96011904Y23610420D02*
X95964285Y23562800D01*
X95964285Y23562800D02*
X95869047Y23515181D01*
X95869047Y23515181D02*
X95630952Y23515181D01*
X95630952Y23515181D02*
X95535714Y23562800D01*
X95535714Y23562800D02*
X95488095Y23610420D01*
X7809580Y-2366666D02*
X7857200Y-2414285D01*
X7857200Y-2414285D02*
X7904819Y-2557142D01*
X7904819Y-2557142D02*
X7904819Y-2652380D01*
X7904819Y-2652380D02*
X7857200Y-2795237D01*
X7857200Y-2795237D02*
X7761961Y-2890475D01*
X7761961Y-2890475D02*
X7666723Y-2938094D01*
X7666723Y-2938094D02*
X7476247Y-2985713D01*
X7476247Y-2985713D02*
X7333390Y-2985713D01*
X7333390Y-2985713D02*
X7142914Y-2938094D01*
X7142914Y-2938094D02*
X7047676Y-2890475D01*
X7047676Y-2890475D02*
X6952438Y-2795237D01*
X6952438Y-2795237D02*
X6904819Y-2652380D01*
X6904819Y-2652380D02*
X6904819Y-2557142D01*
X6904819Y-2557142D02*
X6952438Y-2414285D01*
X6952438Y-2414285D02*
X7000057Y-2366666D01*
X7000057Y-1985713D02*
X6952438Y-1938094D01*
X6952438Y-1938094D02*
X6904819Y-1842856D01*
X6904819Y-1842856D02*
X6904819Y-1604761D01*
X6904819Y-1604761D02*
X6952438Y-1509523D01*
X6952438Y-1509523D02*
X7000057Y-1461904D01*
X7000057Y-1461904D02*
X7095295Y-1414285D01*
X7095295Y-1414285D02*
X7190533Y-1414285D01*
X7190533Y-1414285D02*
X7333390Y-1461904D01*
X7333390Y-1461904D02*
X7904819Y-2033332D01*
X7904819Y-2033332D02*
X7904819Y-1414285D01*
X6938095Y-954819D02*
X6938095Y-1764342D01*
X6938095Y-1764342D02*
X6985714Y-1859580D01*
X6985714Y-1859580D02*
X7033333Y-1907200D01*
X7033333Y-1907200D02*
X7128571Y-1954819D01*
X7128571Y-1954819D02*
X7319047Y-1954819D01*
X7319047Y-1954819D02*
X7414285Y-1907200D01*
X7414285Y-1907200D02*
X7461904Y-1859580D01*
X7461904Y-1859580D02*
X7509523Y-1764342D01*
X7509523Y-1764342D02*
X7509523Y-954819D01*
X8509523Y-1954819D02*
X7938095Y-1954819D01*
X8223809Y-1954819D02*
X8223809Y-954819D01*
X8223809Y-954819D02*
X8128571Y-1097676D01*
X8128571Y-1097676D02*
X8033333Y-1192914D01*
X8033333Y-1192914D02*
X7938095Y-1240533D01*
X1698666Y-3235819D02*
X1698666Y-3950104D01*
X1698666Y-3950104D02*
X1651047Y-4092961D01*
X1651047Y-4092961D02*
X1555809Y-4188200D01*
X1555809Y-4188200D02*
X1412952Y-4235819D01*
X1412952Y-4235819D02*
X1317714Y-4235819D01*
X2127238Y-3331057D02*
X2174857Y-3283438D01*
X2174857Y-3283438D02*
X2270095Y-3235819D01*
X2270095Y-3235819D02*
X2508190Y-3235819D01*
X2508190Y-3235819D02*
X2603428Y-3283438D01*
X2603428Y-3283438D02*
X2651047Y-3331057D01*
X2651047Y-3331057D02*
X2698666Y-3426295D01*
X2698666Y-3426295D02*
X2698666Y-3521533D01*
X2698666Y-3521533D02*
X2651047Y-3664390D01*
X2651047Y-3664390D02*
X2079619Y-4235819D01*
X2079619Y-4235819D02*
X2698666Y-4235819D01*
X8683333Y-8504819D02*
X8350000Y-8028628D01*
X8111905Y-8504819D02*
X8111905Y-7504819D01*
X8111905Y-7504819D02*
X8492857Y-7504819D01*
X8492857Y-7504819D02*
X8588095Y-7552438D01*
X8588095Y-7552438D02*
X8635714Y-7600057D01*
X8635714Y-7600057D02*
X8683333Y-7695295D01*
X8683333Y-7695295D02*
X8683333Y-7838152D01*
X8683333Y-7838152D02*
X8635714Y-7933390D01*
X8635714Y-7933390D02*
X8588095Y-7981009D01*
X8588095Y-7981009D02*
X8492857Y-8028628D01*
X8492857Y-8028628D02*
X8111905Y-8028628D01*
X9016667Y-7504819D02*
X9635714Y-7504819D01*
X9635714Y-7504819D02*
X9302381Y-7885771D01*
X9302381Y-7885771D02*
X9445238Y-7885771D01*
X9445238Y-7885771D02*
X9540476Y-7933390D01*
X9540476Y-7933390D02*
X9588095Y-7981009D01*
X9588095Y-7981009D02*
X9635714Y-8076247D01*
X9635714Y-8076247D02*
X9635714Y-8314342D01*
X9635714Y-8314342D02*
X9588095Y-8409580D01*
X9588095Y-8409580D02*
X9540476Y-8457200D01*
X9540476Y-8457200D02*
X9445238Y-8504819D01*
X9445238Y-8504819D02*
X9159524Y-8504819D01*
X9159524Y-8504819D02*
X9064286Y-8457200D01*
X9064286Y-8457200D02*
X9016667Y-8409580D01*
X19224666Y-1188819D02*
X19224666Y-1903104D01*
X19224666Y-1903104D02*
X19177047Y-2045961D01*
X19177047Y-2045961D02*
X19081809Y-2141200D01*
X19081809Y-2141200D02*
X18938952Y-2188819D01*
X18938952Y-2188819D02*
X18843714Y-2188819D01*
X20224666Y-2188819D02*
X19653238Y-2188819D01*
X19938952Y-2188819D02*
X19938952Y-1188819D01*
X19938952Y-1188819D02*
X19843714Y-1331676D01*
X19843714Y-1331676D02*
X19748476Y-1426914D01*
X19748476Y-1426914D02*
X19653238Y-1474533D01*
X9283333Y345181D02*
X8950000Y821372D01*
X8711905Y345181D02*
X8711905Y1345181D01*
X8711905Y1345181D02*
X9092857Y1345181D01*
X9092857Y1345181D02*
X9188095Y1297562D01*
X9188095Y1297562D02*
X9235714Y1249943D01*
X9235714Y1249943D02*
X9283333Y1154705D01*
X9283333Y1154705D02*
X9283333Y1011848D01*
X9283333Y1011848D02*
X9235714Y916610D01*
X9235714Y916610D02*
X9188095Y868991D01*
X9188095Y868991D02*
X9092857Y821372D01*
X9092857Y821372D02*
X8711905Y821372D01*
X10140476Y1345181D02*
X9950000Y1345181D01*
X9950000Y1345181D02*
X9854762Y1297562D01*
X9854762Y1297562D02*
X9807143Y1249943D01*
X9807143Y1249943D02*
X9711905Y1107086D01*
X9711905Y1107086D02*
X9664286Y916610D01*
X9664286Y916610D02*
X9664286Y535658D01*
X9664286Y535658D02*
X9711905Y440420D01*
X9711905Y440420D02*
X9759524Y392800D01*
X9759524Y392800D02*
X9854762Y345181D01*
X9854762Y345181D02*
X10045238Y345181D01*
X10045238Y345181D02*
X10140476Y392800D01*
X10140476Y392800D02*
X10188095Y440420D01*
X10188095Y440420D02*
X10235714Y535658D01*
X10235714Y535658D02*
X10235714Y773753D01*
X10235714Y773753D02*
X10188095Y868991D01*
X10188095Y868991D02*
X10140476Y916610D01*
X10140476Y916610D02*
X10045238Y964229D01*
X10045238Y964229D02*
X9854762Y964229D01*
X9854762Y964229D02*
X9759524Y916610D01*
X9759524Y916610D02*
X9711905Y868991D01*
X9711905Y868991D02*
X9664286Y773753D01*
X11352819Y-2461904D02*
X11352819Y-1890476D01*
X12352819Y-2176190D02*
X11352819Y-2176190D01*
X12352819Y-1557142D02*
X11352819Y-1557142D01*
X11352819Y-1557142D02*
X11352819Y-1176190D01*
X11352819Y-1176190D02*
X11400438Y-1080952D01*
X11400438Y-1080952D02*
X11448057Y-1033333D01*
X11448057Y-1033333D02*
X11543295Y-985714D01*
X11543295Y-985714D02*
X11686152Y-985714D01*
X11686152Y-985714D02*
X11781390Y-1033333D01*
X11781390Y-1033333D02*
X11829009Y-1080952D01*
X11829009Y-1080952D02*
X11876628Y-1176190D01*
X11876628Y-1176190D02*
X11876628Y-1557142D01*
X11448057Y-604761D02*
X11400438Y-557142D01*
X11400438Y-557142D02*
X11352819Y-461904D01*
X11352819Y-461904D02*
X11352819Y-223809D01*
X11352819Y-223809D02*
X11400438Y-128571D01*
X11400438Y-128571D02*
X11448057Y-80952D01*
X11448057Y-80952D02*
X11543295Y-33333D01*
X11543295Y-33333D02*
X11638533Y-33333D01*
X11638533Y-33333D02*
X11781390Y-80952D01*
X11781390Y-80952D02*
X12352819Y-652380D01*
X12352819Y-652380D02*
X12352819Y-33333D01*
X15854819Y-11266666D02*
X15378628Y-11599999D01*
X15854819Y-11838094D02*
X14854819Y-11838094D01*
X14854819Y-11838094D02*
X14854819Y-11457142D01*
X14854819Y-11457142D02*
X14902438Y-11361904D01*
X14902438Y-11361904D02*
X14950057Y-11314285D01*
X14950057Y-11314285D02*
X15045295Y-11266666D01*
X15045295Y-11266666D02*
X15188152Y-11266666D01*
X15188152Y-11266666D02*
X15283390Y-11314285D01*
X15283390Y-11314285D02*
X15331009Y-11361904D01*
X15331009Y-11361904D02*
X15378628Y-11457142D01*
X15378628Y-11457142D02*
X15378628Y-11838094D01*
X15283390Y-10695237D02*
X15235771Y-10790475D01*
X15235771Y-10790475D02*
X15188152Y-10838094D01*
X15188152Y-10838094D02*
X15092914Y-10885713D01*
X15092914Y-10885713D02*
X15045295Y-10885713D01*
X15045295Y-10885713D02*
X14950057Y-10838094D01*
X14950057Y-10838094D02*
X14902438Y-10790475D01*
X14902438Y-10790475D02*
X14854819Y-10695237D01*
X14854819Y-10695237D02*
X14854819Y-10504761D01*
X14854819Y-10504761D02*
X14902438Y-10409523D01*
X14902438Y-10409523D02*
X14950057Y-10361904D01*
X14950057Y-10361904D02*
X15045295Y-10314285D01*
X15045295Y-10314285D02*
X15092914Y-10314285D01*
X15092914Y-10314285D02*
X15188152Y-10361904D01*
X15188152Y-10361904D02*
X15235771Y-10409523D01*
X15235771Y-10409523D02*
X15283390Y-10504761D01*
X15283390Y-10504761D02*
X15283390Y-10695237D01*
X15283390Y-10695237D02*
X15331009Y-10790475D01*
X15331009Y-10790475D02*
X15378628Y-10838094D01*
X15378628Y-10838094D02*
X15473866Y-10885713D01*
X15473866Y-10885713D02*
X15664342Y-10885713D01*
X15664342Y-10885713D02*
X15759580Y-10838094D01*
X15759580Y-10838094D02*
X15807200Y-10790475D01*
X15807200Y-10790475D02*
X15854819Y-10695237D01*
X15854819Y-10695237D02*
X15854819Y-10504761D01*
X15854819Y-10504761D02*
X15807200Y-10409523D01*
X15807200Y-10409523D02*
X15759580Y-10361904D01*
X15759580Y-10361904D02*
X15664342Y-10314285D01*
X15664342Y-10314285D02*
X15473866Y-10314285D01*
X15473866Y-10314285D02*
X15378628Y-10361904D01*
X15378628Y-10361904D02*
X15331009Y-10409523D01*
X15331009Y-10409523D02*
X15283390Y-10504761D01*
X5683333Y-6754819D02*
X5350000Y-6278628D01*
X5111905Y-6754819D02*
X5111905Y-5754819D01*
X5111905Y-5754819D02*
X5492857Y-5754819D01*
X5492857Y-5754819D02*
X5588095Y-5802438D01*
X5588095Y-5802438D02*
X5635714Y-5850057D01*
X5635714Y-5850057D02*
X5683333Y-5945295D01*
X5683333Y-5945295D02*
X5683333Y-6088152D01*
X5683333Y-6088152D02*
X5635714Y-6183390D01*
X5635714Y-6183390D02*
X5588095Y-6231009D01*
X5588095Y-6231009D02*
X5492857Y-6278628D01*
X5492857Y-6278628D02*
X5111905Y-6278628D01*
X6540476Y-6088152D02*
X6540476Y-6754819D01*
X6302381Y-5707200D02*
X6064286Y-6421485D01*
X6064286Y-6421485D02*
X6683333Y-6421485D01*
X95154761Y27789943D02*
X95059523Y27837562D01*
X95059523Y27837562D02*
X94964285Y27932800D01*
X94964285Y27932800D02*
X94821428Y28075658D01*
X94821428Y28075658D02*
X94726190Y28123277D01*
X94726190Y28123277D02*
X94630952Y28123277D01*
X94678571Y27885181D02*
X94583333Y27932800D01*
X94583333Y27932800D02*
X94488095Y28028039D01*
X94488095Y28028039D02*
X94440476Y28218515D01*
X94440476Y28218515D02*
X94440476Y28551848D01*
X94440476Y28551848D02*
X94488095Y28742324D01*
X94488095Y28742324D02*
X94583333Y28837562D01*
X94583333Y28837562D02*
X94678571Y28885181D01*
X94678571Y28885181D02*
X94869047Y28885181D01*
X94869047Y28885181D02*
X94964285Y28837562D01*
X94964285Y28837562D02*
X95059523Y28742324D01*
X95059523Y28742324D02*
X95107142Y28551848D01*
X95107142Y28551848D02*
X95107142Y28218515D01*
X95107142Y28218515D02*
X95059523Y28028039D01*
X95059523Y28028039D02*
X94964285Y27932800D01*
X94964285Y27932800D02*
X94869047Y27885181D01*
X94869047Y27885181D02*
X94678571Y27885181D01*
X95964285Y28551848D02*
X95964285Y27885181D01*
X95726190Y28932800D02*
X95488095Y28218515D01*
X95488095Y28218515D02*
X96107142Y28218515D01*
X14604761Y-12900057D02*
X14509523Y-12852438D01*
X14509523Y-12852438D02*
X14414285Y-12757200D01*
X14414285Y-12757200D02*
X14271428Y-12614342D01*
X14271428Y-12614342D02*
X14176190Y-12566723D01*
X14176190Y-12566723D02*
X14080952Y-12566723D01*
X14128571Y-12804819D02*
X14033333Y-12757200D01*
X14033333Y-12757200D02*
X13938095Y-12661961D01*
X13938095Y-12661961D02*
X13890476Y-12471485D01*
X13890476Y-12471485D02*
X13890476Y-12138152D01*
X13890476Y-12138152D02*
X13938095Y-11947676D01*
X13938095Y-11947676D02*
X14033333Y-11852438D01*
X14033333Y-11852438D02*
X14128571Y-11804819D01*
X14128571Y-11804819D02*
X14319047Y-11804819D01*
X14319047Y-11804819D02*
X14414285Y-11852438D01*
X14414285Y-11852438D02*
X14509523Y-11947676D01*
X14509523Y-11947676D02*
X14557142Y-12138152D01*
X14557142Y-12138152D02*
X14557142Y-12471485D01*
X14557142Y-12471485D02*
X14509523Y-12661961D01*
X14509523Y-12661961D02*
X14414285Y-12757200D01*
X14414285Y-12757200D02*
X14319047Y-12804819D01*
X14319047Y-12804819D02*
X14128571Y-12804819D01*
X14938095Y-11900057D02*
X14985714Y-11852438D01*
X14985714Y-11852438D02*
X15080952Y-11804819D01*
X15080952Y-11804819D02*
X15319047Y-11804819D01*
X15319047Y-11804819D02*
X15414285Y-11852438D01*
X15414285Y-11852438D02*
X15461904Y-11900057D01*
X15461904Y-11900057D02*
X15509523Y-11995295D01*
X15509523Y-11995295D02*
X15509523Y-12090533D01*
X15509523Y-12090533D02*
X15461904Y-12233390D01*
X15461904Y-12233390D02*
X14890476Y-12804819D01*
X14890476Y-12804819D02*
X15509523Y-12804819D01*
X14604761Y-16650057D02*
X14509523Y-16602438D01*
X14509523Y-16602438D02*
X14414285Y-16507200D01*
X14414285Y-16507200D02*
X14271428Y-16364342D01*
X14271428Y-16364342D02*
X14176190Y-16316723D01*
X14176190Y-16316723D02*
X14080952Y-16316723D01*
X14128571Y-16554819D02*
X14033333Y-16507200D01*
X14033333Y-16507200D02*
X13938095Y-16411961D01*
X13938095Y-16411961D02*
X13890476Y-16221485D01*
X13890476Y-16221485D02*
X13890476Y-15888152D01*
X13890476Y-15888152D02*
X13938095Y-15697676D01*
X13938095Y-15697676D02*
X14033333Y-15602438D01*
X14033333Y-15602438D02*
X14128571Y-15554819D01*
X14128571Y-15554819D02*
X14319047Y-15554819D01*
X14319047Y-15554819D02*
X14414285Y-15602438D01*
X14414285Y-15602438D02*
X14509523Y-15697676D01*
X14509523Y-15697676D02*
X14557142Y-15888152D01*
X14557142Y-15888152D02*
X14557142Y-16221485D01*
X14557142Y-16221485D02*
X14509523Y-16411961D01*
X14509523Y-16411961D02*
X14414285Y-16507200D01*
X14414285Y-16507200D02*
X14319047Y-16554819D01*
X14319047Y-16554819D02*
X14128571Y-16554819D01*
X14890476Y-15554819D02*
X15509523Y-15554819D01*
X15509523Y-15554819D02*
X15176190Y-15935771D01*
X15176190Y-15935771D02*
X15319047Y-15935771D01*
X15319047Y-15935771D02*
X15414285Y-15983390D01*
X15414285Y-15983390D02*
X15461904Y-16031009D01*
X15461904Y-16031009D02*
X15509523Y-16126247D01*
X15509523Y-16126247D02*
X15509523Y-16364342D01*
X15509523Y-16364342D02*
X15461904Y-16459580D01*
X15461904Y-16459580D02*
X15414285Y-16507200D01*
X15414285Y-16507200D02*
X15319047Y-16554819D01*
X15319047Y-16554819D02*
X15033333Y-16554819D01*
X15033333Y-16554819D02*
X14938095Y-16507200D01*
X14938095Y-16507200D02*
X14890476Y-16459580D01*
X14852819Y-2461904D02*
X14852819Y-1890476D01*
X15852819Y-2176190D02*
X14852819Y-2176190D01*
X15852819Y-1557142D02*
X14852819Y-1557142D01*
X14852819Y-1557142D02*
X14852819Y-1176190D01*
X14852819Y-1176190D02*
X14900438Y-1080952D01*
X14900438Y-1080952D02*
X14948057Y-1033333D01*
X14948057Y-1033333D02*
X15043295Y-985714D01*
X15043295Y-985714D02*
X15186152Y-985714D01*
X15186152Y-985714D02*
X15281390Y-1033333D01*
X15281390Y-1033333D02*
X15329009Y-1080952D01*
X15329009Y-1080952D02*
X15376628Y-1176190D01*
X15376628Y-1176190D02*
X15376628Y-1557142D01*
X15852819Y-33333D02*
X15852819Y-604761D01*
X15852819Y-319047D02*
X14852819Y-319047D01*
X14852819Y-319047D02*
X14995676Y-414285D01*
X14995676Y-414285D02*
X15090914Y-509523D01*
X15090914Y-509523D02*
X15138533Y-604761D01*
X6783333Y2440420D02*
X6735714Y2392800D01*
X6735714Y2392800D02*
X6592857Y2345181D01*
X6592857Y2345181D02*
X6497619Y2345181D01*
X6497619Y2345181D02*
X6354762Y2392800D01*
X6354762Y2392800D02*
X6259524Y2488039D01*
X6259524Y2488039D02*
X6211905Y2583277D01*
X6211905Y2583277D02*
X6164286Y2773753D01*
X6164286Y2773753D02*
X6164286Y2916610D01*
X6164286Y2916610D02*
X6211905Y3107086D01*
X6211905Y3107086D02*
X6259524Y3202324D01*
X6259524Y3202324D02*
X6354762Y3297562D01*
X6354762Y3297562D02*
X6497619Y3345181D01*
X6497619Y3345181D02*
X6592857Y3345181D01*
X6592857Y3345181D02*
X6735714Y3297562D01*
X6735714Y3297562D02*
X6783333Y3249943D01*
X7116667Y3345181D02*
X7735714Y3345181D01*
X7735714Y3345181D02*
X7402381Y2964229D01*
X7402381Y2964229D02*
X7545238Y2964229D01*
X7545238Y2964229D02*
X7640476Y2916610D01*
X7640476Y2916610D02*
X7688095Y2868991D01*
X7688095Y2868991D02*
X7735714Y2773753D01*
X7735714Y2773753D02*
X7735714Y2535658D01*
X7735714Y2535658D02*
X7688095Y2440420D01*
X7688095Y2440420D02*
X7640476Y2392800D01*
X7640476Y2392800D02*
X7545238Y2345181D01*
X7545238Y2345181D02*
X7259524Y2345181D01*
X7259524Y2345181D02*
X7164286Y2392800D01*
X7164286Y2392800D02*
X7116667Y2440420D01*
X14604761Y-9150057D02*
X14509523Y-9102438D01*
X14509523Y-9102438D02*
X14414285Y-9007200D01*
X14414285Y-9007200D02*
X14271428Y-8864342D01*
X14271428Y-8864342D02*
X14176190Y-8816723D01*
X14176190Y-8816723D02*
X14080952Y-8816723D01*
X14128571Y-9054819D02*
X14033333Y-9007200D01*
X14033333Y-9007200D02*
X13938095Y-8911961D01*
X13938095Y-8911961D02*
X13890476Y-8721485D01*
X13890476Y-8721485D02*
X13890476Y-8388152D01*
X13890476Y-8388152D02*
X13938095Y-8197676D01*
X13938095Y-8197676D02*
X14033333Y-8102438D01*
X14033333Y-8102438D02*
X14128571Y-8054819D01*
X14128571Y-8054819D02*
X14319047Y-8054819D01*
X14319047Y-8054819D02*
X14414285Y-8102438D01*
X14414285Y-8102438D02*
X14509523Y-8197676D01*
X14509523Y-8197676D02*
X14557142Y-8388152D01*
X14557142Y-8388152D02*
X14557142Y-8721485D01*
X14557142Y-8721485D02*
X14509523Y-8911961D01*
X14509523Y-8911961D02*
X14414285Y-9007200D01*
X14414285Y-9007200D02*
X14319047Y-9054819D01*
X14319047Y-9054819D02*
X14128571Y-9054819D01*
X15509523Y-9054819D02*
X14938095Y-9054819D01*
X15223809Y-9054819D02*
X15223809Y-8054819D01*
X15223809Y-8054819D02*
X15128571Y-8197676D01*
X15128571Y-8197676D02*
X15033333Y-8292914D01*
X15033333Y-8292914D02*
X14938095Y-8340533D01*
X95154761Y19049943D02*
X95059523Y19097562D01*
X95059523Y19097562D02*
X94964285Y19192800D01*
X94964285Y19192800D02*
X94821428Y19335658D01*
X94821428Y19335658D02*
X94726190Y19383277D01*
X94726190Y19383277D02*
X94630952Y19383277D01*
X94678571Y19145181D02*
X94583333Y19192800D01*
X94583333Y19192800D02*
X94488095Y19288039D01*
X94488095Y19288039D02*
X94440476Y19478515D01*
X94440476Y19478515D02*
X94440476Y19811848D01*
X94440476Y19811848D02*
X94488095Y20002324D01*
X94488095Y20002324D02*
X94583333Y20097562D01*
X94583333Y20097562D02*
X94678571Y20145181D01*
X94678571Y20145181D02*
X94869047Y20145181D01*
X94869047Y20145181D02*
X94964285Y20097562D01*
X94964285Y20097562D02*
X95059523Y20002324D01*
X95059523Y20002324D02*
X95107142Y19811848D01*
X95107142Y19811848D02*
X95107142Y19478515D01*
X95107142Y19478515D02*
X95059523Y19288039D01*
X95059523Y19288039D02*
X94964285Y19192800D01*
X94964285Y19192800D02*
X94869047Y19145181D01*
X94869047Y19145181D02*
X94678571Y19145181D01*
X95964285Y20145181D02*
X95773809Y20145181D01*
X95773809Y20145181D02*
X95678571Y20097562D01*
X95678571Y20097562D02*
X95630952Y20049943D01*
X95630952Y20049943D02*
X95535714Y19907086D01*
X95535714Y19907086D02*
X95488095Y19716610D01*
X95488095Y19716610D02*
X95488095Y19335658D01*
X95488095Y19335658D02*
X95535714Y19240420D01*
X95535714Y19240420D02*
X95583333Y19192800D01*
X95583333Y19192800D02*
X95678571Y19145181D01*
X95678571Y19145181D02*
X95869047Y19145181D01*
X95869047Y19145181D02*
X95964285Y19192800D01*
X95964285Y19192800D02*
X96011904Y19240420D01*
X96011904Y19240420D02*
X96059523Y19335658D01*
X96059523Y19335658D02*
X96059523Y19573753D01*
X96059523Y19573753D02*
X96011904Y19668991D01*
X96011904Y19668991D02*
X95964285Y19716610D01*
X95964285Y19716610D02*
X95869047Y19764229D01*
X95869047Y19764229D02*
X95678571Y19764229D01*
X95678571Y19764229D02*
X95583333Y19716610D01*
X95583333Y19716610D02*
X95535714Y19668991D01*
X95535714Y19668991D02*
X95488095Y19573753D01*
X5683333Y-8504819D02*
X5350000Y-8028628D01*
X5111905Y-8504819D02*
X5111905Y-7504819D01*
X5111905Y-7504819D02*
X5492857Y-7504819D01*
X5492857Y-7504819D02*
X5588095Y-7552438D01*
X5588095Y-7552438D02*
X5635714Y-7600057D01*
X5635714Y-7600057D02*
X5683333Y-7695295D01*
X5683333Y-7695295D02*
X5683333Y-7838152D01*
X5683333Y-7838152D02*
X5635714Y-7933390D01*
X5635714Y-7933390D02*
X5588095Y-7981009D01*
X5588095Y-7981009D02*
X5492857Y-8028628D01*
X5492857Y-8028628D02*
X5111905Y-8028628D01*
X6064286Y-7600057D02*
X6111905Y-7552438D01*
X6111905Y-7552438D02*
X6207143Y-7504819D01*
X6207143Y-7504819D02*
X6445238Y-7504819D01*
X6445238Y-7504819D02*
X6540476Y-7552438D01*
X6540476Y-7552438D02*
X6588095Y-7600057D01*
X6588095Y-7600057D02*
X6635714Y-7695295D01*
X6635714Y-7695295D02*
X6635714Y-7790533D01*
X6635714Y-7790533D02*
X6588095Y-7933390D01*
X6588095Y-7933390D02*
X6016667Y-8504819D01*
X6016667Y-8504819D02*
X6635714Y-8504819D01*
X6283333Y345181D02*
X5950000Y821372D01*
X5711905Y345181D02*
X5711905Y1345181D01*
X5711905Y1345181D02*
X6092857Y1345181D01*
X6092857Y1345181D02*
X6188095Y1297562D01*
X6188095Y1297562D02*
X6235714Y1249943D01*
X6235714Y1249943D02*
X6283333Y1154705D01*
X6283333Y1154705D02*
X6283333Y1011848D01*
X6283333Y1011848D02*
X6235714Y916610D01*
X6235714Y916610D02*
X6188095Y868991D01*
X6188095Y868991D02*
X6092857Y821372D01*
X6092857Y821372D02*
X5711905Y821372D01*
X7235714Y345181D02*
X6664286Y345181D01*
X6950000Y345181D02*
X6950000Y1345181D01*
X6950000Y1345181D02*
X6854762Y1202324D01*
X6854762Y1202324D02*
X6759524Y1107086D01*
X6759524Y1107086D02*
X6664286Y1059467D01*
G04 #@! TO.C,C1*
X300000Y-1800000D02*
X300000Y-390000D01*
X300000Y-2600000D02*
X300000Y-4010000D01*
X450000Y-240000D02*
X1950000Y-240000D01*
X450000Y-4160000D02*
X1950000Y-4160000D01*
X2100000Y-390000D02*
X2100000Y-1800000D01*
X2100000Y-4010000D02*
X2100000Y-2600000D01*
X300000Y-390000D02*
G75*
G02*
X450000Y-240000I150000J0D01*
G01*
X450000Y-4160000D02*
G75*
G02*
X300000Y-4010000I0J150000D01*
G01*
X1950000Y-240000D02*
G75*
G02*
X2100000Y-390000I0J-150000D01*
G01*
X2100000Y-4010000D02*
G75*
G02*
X1950000Y-4160000I-150000J0D01*
G01*
G04 #@! TO.C,R5*
X7410000Y-9640000D02*
X8370000Y-9640000D01*
X7410000Y-10960000D02*
X7410000Y-9640000D01*
X8370000Y-10960000D02*
X7410000Y-10960000D01*
X9230000Y-10960000D02*
X10190000Y-10960000D01*
X10190000Y-9640000D02*
X9230000Y-9640000D01*
X10190000Y-10960000D02*
X10190000Y-9640000D01*
G04 #@! TO.C,Q5*
X93710000Y17930000D02*
X93710000Y19710000D01*
X96790000Y17930000D02*
X96790000Y19710000D01*
D11*
X93730000Y17520000D02*
G75*
G02*
X93430000Y17520000I-150000J0D01*
G01*
X93430000Y17520000D02*
G75*
G02*
X93730000Y17520000I150000J0D01*
G01*
D10*
G04 #@! TO.C,C2*
X2550000Y-1800000D02*
X2550000Y-390000D01*
X2550000Y-2600000D02*
X2550000Y-4010000D01*
X2700000Y-240000D02*
X4200000Y-240000D01*
X2700000Y-4160000D02*
X4200000Y-4160000D01*
X4350000Y-390000D02*
X4350000Y-1800000D01*
X4350000Y-4010000D02*
X4350000Y-2600000D01*
X2550000Y-390000D02*
G75*
G02*
X2700000Y-240000I150000J0D01*
G01*
X2700000Y-4160000D02*
G75*
G02*
X2550000Y-4010000I0J150000D01*
G01*
X4200000Y-240000D02*
G75*
G02*
X4350000Y-390000I0J-150000D01*
G01*
X4350000Y-4010000D02*
G75*
G02*
X4200000Y-4160000I-150000J0D01*
G01*
D12*
G04 #@! TO.C,U1*
X5800000Y-8860000D02*
X5800000Y-8210000D01*
X5800000Y-8860000D02*
X6450000Y-8860000D01*
X5960000Y-5050000D02*
X5960000Y-5700000D01*
X5960000Y-5050000D02*
X6610000Y-5050000D01*
X9440000Y-8860000D02*
X8790000Y-8860000D01*
X9440000Y-8860000D02*
X9440000Y-8210000D01*
X9600000Y-5050000D02*
X8950000Y-5050000D01*
X9600000Y-5050000D02*
X9600000Y-5700000D01*
X6600000Y-9210000D02*
G75*
G02*
X6400000Y-9210000I-100000J0D01*
G01*
X6400000Y-9210000D02*
G75*
G02*
X6600000Y-9210000I100000J0D01*
G01*
D13*
G04 #@! TO.C,J2*
X702000Y-4781000D02*
X2032000Y-4781000D01*
X702000Y-6111000D02*
X702000Y-4781000D01*
X702000Y-7381000D02*
X702000Y-12521000D01*
X702000Y-7381000D02*
X3362000Y-7381000D01*
X702000Y-12521000D02*
X3362000Y-12521000D01*
X3362000Y-7381000D02*
X3362000Y-12521000D01*
D10*
G04 #@! TO.C,R3*
X7460000Y-11390000D02*
X8420000Y-11390000D01*
X7460000Y-12710000D02*
X7460000Y-11390000D01*
X8420000Y-12710000D02*
X7460000Y-12710000D01*
X9280000Y-12710000D02*
X10240000Y-12710000D01*
X10240000Y-11390000D02*
X9280000Y-11390000D01*
X10240000Y-12710000D02*
X10240000Y-11390000D01*
D13*
G04 #@! TO.C,J1*
X18228000Y-2734000D02*
X19558000Y-2734000D01*
X18228000Y-4064000D02*
X18228000Y-2734000D01*
X18228000Y-5334000D02*
X18228000Y-10474000D01*
X18228000Y-5334000D02*
X20888000Y-5334000D01*
X18228000Y-10474000D02*
X20888000Y-10474000D01*
X20888000Y-5334000D02*
X20888000Y-10474000D01*
D10*
G04 #@! TO.C,R6*
X8060000Y-2540000D02*
X9020000Y-2540000D01*
X8060000Y-3860000D02*
X8060000Y-2540000D01*
X9020000Y-3860000D02*
X8060000Y-3860000D01*
X9880000Y-3860000D02*
X10840000Y-3860000D01*
X10840000Y-2540000D02*
X9880000Y-2540000D01*
X10840000Y-3860000D02*
X10840000Y-2540000D01*
D13*
G04 #@! TO.C,TP2*
X9750000Y-500000D02*
X11150000Y-500000D01*
X9750000Y-1900000D02*
X9750000Y-500000D01*
X11150000Y-500000D02*
X11150000Y-1900000D01*
X11150000Y-1900000D02*
X9750000Y-1900000D01*
D10*
G04 #@! TO.C,R8*
X10740000Y-9710000D02*
X12060000Y-9710000D01*
X10740000Y-10670000D02*
X10740000Y-9710000D01*
X10740000Y-11530000D02*
X10740000Y-12490000D01*
X10740000Y-12490000D02*
X12060000Y-12490000D01*
X12060000Y-9710000D02*
X12060000Y-10670000D01*
X12060000Y-12490000D02*
X12060000Y-11530000D01*
G04 #@! TO.C,R4*
X4460000Y-9640000D02*
X5420000Y-9640000D01*
X4460000Y-10960000D02*
X4460000Y-9640000D01*
X5420000Y-10960000D02*
X4460000Y-10960000D01*
X6280000Y-10960000D02*
X7240000Y-10960000D01*
X7240000Y-9640000D02*
X6280000Y-9640000D01*
X7240000Y-10960000D02*
X7240000Y-9640000D01*
G04 #@! TO.C,Q4*
X93710000Y22300000D02*
X93710000Y24080000D01*
X96790000Y22300000D02*
X96790000Y24080000D01*
D11*
X93730000Y21890000D02*
G75*
G02*
X93430000Y21890000I-150000J0D01*
G01*
X93430000Y21890000D02*
G75*
G02*
X93730000Y21890000I150000J0D01*
G01*
D12*
G04 #@! TO.C,Q2*
X15600000Y-5800000D02*
X13800000Y-5800000D01*
X15600000Y-9000000D02*
X13800000Y-9000000D01*
X13480000Y-5720000D02*
G75*
G02*
X13220000Y-5720000I-130000J0D01*
G01*
X13220000Y-5720000D02*
G75*
G02*
X13480000Y-5720000I130000J0D01*
G01*
G04 #@! TO.C,Q3*
X15600000Y-9550000D02*
X13800000Y-9550000D01*
X15600000Y-12750000D02*
X13800000Y-12750000D01*
X13480000Y-9470000D02*
G75*
G02*
X13220000Y-9470000I-130000J0D01*
G01*
X13220000Y-9470000D02*
G75*
G02*
X13480000Y-9470000I130000J0D01*
G01*
D13*
G04 #@! TO.C,TP1*
X13250000Y-500000D02*
X14650000Y-500000D01*
X13250000Y-1900000D02*
X13250000Y-500000D01*
X14650000Y-500000D02*
X14650000Y-1900000D01*
X14650000Y-1900000D02*
X13250000Y-1900000D01*
D10*
G04 #@! TO.C,C3*
X4990000Y-1950000D02*
X4990000Y-450000D01*
X5140000Y-300000D02*
X6550000Y-300000D01*
X6550000Y-2100000D02*
X5140000Y-2100000D01*
X7350000Y-2100000D02*
X8760000Y-2100000D01*
X8760000Y-300000D02*
X7350000Y-300000D01*
X8910000Y-1950000D02*
X8910000Y-450000D01*
X4990000Y-450000D02*
G75*
G02*
X5140000Y-300000I150000J0D01*
G01*
X5140000Y-2100000D02*
G75*
G02*
X4990000Y-1950000I0J150000D01*
G01*
X8760000Y-300000D02*
G75*
G02*
X8910000Y-450000I0J-150000D01*
G01*
X8910000Y-1950000D02*
G75*
G02*
X8760000Y-2100000I-150000J0D01*
G01*
D12*
G04 #@! TO.C,Q1*
X15600000Y-2050000D02*
X13800000Y-2050000D01*
X15600000Y-5250000D02*
X13800000Y-5250000D01*
X13480000Y-1970000D02*
G75*
G02*
X13220000Y-1970000I-130000J0D01*
G01*
X13220000Y-1970000D02*
G75*
G02*
X13480000Y-1970000I130000J0D01*
G01*
D10*
G04 #@! TO.C,Q6*
X93710000Y13560000D02*
X93710000Y15340000D01*
X96790000Y13560000D02*
X96790000Y15340000D01*
D11*
X93730000Y13150000D02*
G75*
G02*
X93430000Y13150000I-150000J0D01*
G01*
X93430000Y13150000D02*
G75*
G02*
X93730000Y13150000I150000J0D01*
G01*
D10*
G04 #@! TO.C,R2*
X4460000Y-11390000D02*
X5420000Y-11390000D01*
X4460000Y-12710000D02*
X4460000Y-11390000D01*
X5420000Y-12710000D02*
X4460000Y-12710000D01*
X6280000Y-12710000D02*
X7240000Y-12710000D01*
X7240000Y-11390000D02*
X6280000Y-11390000D01*
X7240000Y-12710000D02*
X7240000Y-11390000D01*
G04 #@! TO.C,R1*
X5060000Y-2540000D02*
X6020000Y-2540000D01*
X5060000Y-3860000D02*
X5060000Y-2540000D01*
X6020000Y-3860000D02*
X5060000Y-3860000D01*
X6880000Y-3860000D02*
X7840000Y-3860000D01*
X7840000Y-2540000D02*
X6880000Y-2540000D01*
X7840000Y-3860000D02*
X7840000Y-2540000D01*
G04 #@! TD*
M02*
