G04 #@! TF.GenerationSoftware,KiCad,Pcbnew,8.0.7-8.0.7-0~ubuntu22.04.1*
G04 #@! TF.CreationDate,2025-01-18T20:22:17+01:00*
G04 #@! TF.ProjectId,pinchito_uesc,70696e63-6869-4746-9f5f-756573632e6b,rev?*
G04 #@! TF.SameCoordinates,Original*
G04 #@! TF.FileFunction,Copper,L1,Top*
G04 #@! TF.FilePolarity,Positive*
%FSLAX46Y46*%
G04 Gerber Fmt 4.6, Leading zero omitted, Abs format (unit mm)*
G04 Created by KiCad (PCBNEW 8.0.7-8.0.7-0~ubuntu22.04.1) date 2025-01-18 20:22:17*
%MOMM*%
%LPD*%
G01*
G04 APERTURE LIST*
G04 #@! TA.AperFunction,SMDPad,CuDef*
%ADD10R,1.350000X1.410000*%
G04 #@! TD*
G04 #@! TA.AperFunction,SMDPad,CuDef*
%ADD11R,0.810000X0.860000*%
G04 #@! TD*
G04 #@! TA.AperFunction,SMDPad,CuDef*
%ADD12R,0.530000X1.070000*%
G04 #@! TD*
G04 #@! TA.AperFunction,SMDPad,CuDef*
%ADD13R,0.340000X0.500000*%
G04 #@! TD*
G04 #@! TA.AperFunction,SMDPad,CuDef*
%ADD14R,0.250000X0.700000*%
G04 #@! TD*
G04 #@! TA.AperFunction,SMDPad,CuDef*
%ADD15R,0.700000X0.250000*%
G04 #@! TD*
G04 #@! TA.AperFunction,SMDPad,CuDef*
%ADD16R,1.700000X1.700000*%
G04 #@! TD*
G04 #@! TA.AperFunction,ComponentPad*
%ADD17R,1.700000X1.700000*%
G04 #@! TD*
G04 #@! TA.AperFunction,ComponentPad*
%ADD18O,1.700000X1.700000*%
G04 #@! TD*
G04 #@! TA.AperFunction,SMDPad,CuDef*
%ADD19R,2.500000X1.000000*%
G04 #@! TD*
G04 #@! TA.AperFunction,SMDPad,CuDef*
%ADD20R,0.860000X0.810000*%
G04 #@! TD*
G04 #@! TA.AperFunction,SMDPad,CuDef*
%ADD21R,1.000000X0.700000*%
G04 #@! TD*
G04 #@! TA.AperFunction,SMDPad,CuDef*
%ADD22R,1.410000X1.350000*%
G04 #@! TD*
G04 #@! TA.AperFunction,ViaPad*
%ADD23C,0.300000*%
G04 #@! TD*
G04 #@! TA.AperFunction,ViaPad*
%ADD24C,0.600000*%
G04 #@! TD*
G04 #@! TA.AperFunction,Conductor*
%ADD25C,0.200000*%
G04 #@! TD*
G04 #@! TA.AperFunction,Conductor*
%ADD26C,0.700000*%
G04 #@! TD*
G04 #@! TA.AperFunction,Conductor*
%ADD27C,0.800000*%
G04 #@! TD*
G04 #@! TA.AperFunction,Conductor*
%ADD28C,1.000000*%
G04 #@! TD*
G04 #@! TA.AperFunction,Conductor*
%ADD29C,0.400000*%
G04 #@! TD*
G04 APERTURE END LIST*
D10*
G04 #@! TO.P,C1,1,1*
G04 #@! TO.N,GND*
X1200000Y-1200000D03*
G04 #@! TO.P,C1,2,2*
G04 #@! TO.N,/VCC*
X1200000Y-3200000D03*
G04 #@! TD*
D11*
G04 #@! TO.P,R5,1,1*
G04 #@! TO.N,/M_B*
X8050000Y-10300000D03*
G04 #@! TO.P,R5,2,2*
G04 #@! TO.N,Net-(U1-P0.0)*
X9550000Y-10300000D03*
G04 #@! TD*
D12*
G04 #@! TO.P,Q5,1,G1*
G04 #@! TO.N,unconnected-(Q5-G1-Pad1)*
X94300000Y17670000D03*
G04 #@! TO.P,Q5,2,S2*
G04 #@! TO.N,unconnected-(Q5-S2-Pad2)*
X95250000Y17670000D03*
G04 #@! TO.P,Q5,3,G2*
G04 #@! TO.N,unconnected-(Q5-G2-Pad3)*
X96200000Y17670000D03*
G04 #@! TO.P,Q5,4,D2*
G04 #@! TO.N,unconnected-(Q5-D2-Pad4)*
X96200000Y19970000D03*
G04 #@! TO.P,Q5,5,S1*
G04 #@! TO.N,unconnected-(Q5-S1-Pad5)*
X95250000Y19970000D03*
G04 #@! TO.P,Q5,6,D1*
G04 #@! TO.N,unconnected-(Q5-D1-Pad6)*
X94300000Y19970000D03*
G04 #@! TD*
D10*
G04 #@! TO.P,C2,1,1*
G04 #@! TO.N,GND*
X3450000Y-1200000D03*
G04 #@! TO.P,C2,2,2*
G04 #@! TO.N,/VCC*
X3450000Y-3200000D03*
G04 #@! TD*
D13*
G04 #@! TO.P,U1,1,P0.1*
G04 #@! TO.N,Net-(U1-P0.1)*
X6450000Y-8330000D03*
D14*
G04 #@! TO.P,U1,2,P0.0*
G04 #@! TO.N,Net-(U1-P0.0)*
X6950000Y-8400000D03*
G04 #@! TO.P,U1,3,GND*
G04 #@! TO.N,GND*
X7450000Y-8400000D03*
G04 #@! TO.P,U1,4,VDD*
G04 #@! TO.N,/VCC*
X7950000Y-8400000D03*
G04 #@! TO.P,U1,5,RSTB/C2CK*
G04 #@! TO.N,/C2CK*
X8450000Y-8400000D03*
D13*
G04 #@! TO.P,U1,6,P2.0/C2D*
G04 #@! TO.N,/C2D*
X8950000Y-8330000D03*
D15*
G04 #@! TO.P,U1,7,P1.6*
G04 #@! TO.N,unconnected-(U1-P1.6-Pad7)*
X9150000Y-7700000D03*
G04 #@! TO.P,U1,8,P1.5*
G04 #@! TO.N,Net-(Q3-G2)*
X9150000Y-7200000D03*
G04 #@! TO.P,U1,9,P1.4*
G04 #@! TO.N,Net-(Q3-G1)*
X9150000Y-6700000D03*
G04 #@! TO.P,U1,10,P1.3*
G04 #@! TO.N,Net-(Q2-G2)*
X9150000Y-6200000D03*
D13*
G04 #@! TO.P,U1,11,P1.2*
G04 #@! TO.N,Net-(Q2-G1)*
X8950000Y-5570000D03*
D14*
G04 #@! TO.P,U1,12,GND*
G04 #@! TO.N,GND*
X8450000Y-5500000D03*
G04 #@! TO.P,U1,13,P1.1*
G04 #@! TO.N,Net-(Q1-G2)*
X7950000Y-5500000D03*
G04 #@! TO.P,U1,14,P1.0*
G04 #@! TO.N,Net-(Q1-G1)*
X7450000Y-5500000D03*
G04 #@! TO.P,U1,15,P0.7*
G04 #@! TO.N,unconnected-(U1-P0.7-Pad15)*
X6950000Y-5500000D03*
D13*
G04 #@! TO.P,U1,16,P0.6*
G04 #@! TO.N,unconnected-(U1-P0.6-Pad16)*
X6450000Y-5570000D03*
D15*
G04 #@! TO.P,U1,17,P0.5*
G04 #@! TO.N,/RC*
X6250000Y-6200000D03*
G04 #@! TO.P,U1,18,P0.4*
G04 #@! TO.N,unconnected-(U1-P0.4-Pad18)*
X6250000Y-6700000D03*
G04 #@! TO.P,U1,19,P0.3*
G04 #@! TO.N,/FCom*
X6250000Y-7200000D03*
G04 #@! TO.P,U1,20,P0.2*
G04 #@! TO.N,Net-(U1-P0.2)*
X6250000Y-7700000D03*
D16*
G04 #@! TO.P,U1,21,GND*
G04 #@! TO.N,GND*
X7700000Y-6950000D03*
G04 #@! TD*
D17*
G04 #@! TO.P,J2,1,Pin_1*
G04 #@! TO.N,/VCC*
X2032000Y-6111000D03*
D18*
G04 #@! TO.P,J2,2,Pin_2*
G04 #@! TO.N,/RC*
X2032000Y-8651000D03*
G04 #@! TO.P,J2,3,Pin_3*
G04 #@! TO.N,GND*
X2032000Y-11191000D03*
G04 #@! TD*
D11*
G04 #@! TO.P,R3,1,1*
G04 #@! TO.N,/M_C*
X8100000Y-12050000D03*
G04 #@! TO.P,R3,2,2*
G04 #@! TO.N,Net-(U1-P0.1)*
X9600000Y-12050000D03*
G04 #@! TD*
D17*
G04 #@! TO.P,J1,1,Pin_1*
G04 #@! TO.N,/M_A*
X19558000Y-4064000D03*
D18*
G04 #@! TO.P,J1,2,Pin_2*
G04 #@! TO.N,/M_B*
X19558000Y-6604000D03*
G04 #@! TO.P,J1,3,Pin_3*
G04 #@! TO.N,/M_C*
X19558000Y-9144000D03*
G04 #@! TD*
D11*
G04 #@! TO.P,R6,1,1*
G04 #@! TO.N,/M_A*
X8700000Y-3200000D03*
G04 #@! TO.P,R6,2,2*
G04 #@! TO.N,Net-(U1-P0.2)*
X10200000Y-3200000D03*
G04 #@! TD*
D19*
G04 #@! TO.P,TP2,1,1*
G04 #@! TO.N,/C2D*
X11200000Y-1200000D03*
G04 #@! TD*
D20*
G04 #@! TO.P,R8,1,1*
G04 #@! TO.N,/C2CK*
X11400000Y-10350000D03*
G04 #@! TO.P,R8,2,2*
G04 #@! TO.N,/VCC*
X11400000Y-11850000D03*
G04 #@! TD*
D11*
G04 #@! TO.P,R4,1,1*
G04 #@! TO.N,/FCom*
X5100000Y-10300000D03*
G04 #@! TO.P,R4,2,2*
G04 #@! TO.N,/M_B*
X6600000Y-10300000D03*
G04 #@! TD*
D12*
G04 #@! TO.P,Q4,1,G1*
G04 #@! TO.N,unconnected-(Q4-G1-Pad1)*
X94300000Y22040000D03*
G04 #@! TO.P,Q4,2,S2*
G04 #@! TO.N,unconnected-(Q4-S2-Pad2)*
X95250000Y22040000D03*
G04 #@! TO.P,Q4,3,G2*
G04 #@! TO.N,unconnected-(Q4-G2-Pad3)*
X96200000Y22040000D03*
G04 #@! TO.P,Q4,4,D2*
G04 #@! TO.N,unconnected-(Q4-D2-Pad4)*
X96200000Y24340000D03*
G04 #@! TO.P,Q4,5,S1*
G04 #@! TO.N,unconnected-(Q4-S1-Pad5)*
X95250000Y24340000D03*
G04 #@! TO.P,Q4,6,D1*
G04 #@! TO.N,unconnected-(Q4-D1-Pad6)*
X94300000Y24340000D03*
G04 #@! TD*
D21*
G04 #@! TO.P,Q2,1,G1*
G04 #@! TO.N,Net-(Q2-G1)*
X13500000Y-6450000D03*
G04 #@! TO.P,Q2,2,S2*
G04 #@! TO.N,/M_B*
X13500000Y-7400000D03*
G04 #@! TO.P,Q2,3,G2*
G04 #@! TO.N,Net-(Q2-G2)*
X13500000Y-8350000D03*
G04 #@! TO.P,Q2,4,D2*
G04 #@! TO.N,/VCC*
X15900000Y-8350000D03*
G04 #@! TO.P,Q2,5,S1*
G04 #@! TO.N,GND*
X15900000Y-7400000D03*
G04 #@! TO.P,Q2,6,D1*
G04 #@! TO.N,/M_B*
X15900000Y-6450000D03*
G04 #@! TD*
G04 #@! TO.P,Q3,1,G1*
G04 #@! TO.N,Net-(Q3-G1)*
X13500000Y-10200000D03*
G04 #@! TO.P,Q3,2,S2*
G04 #@! TO.N,/M_C*
X13500000Y-11150000D03*
G04 #@! TO.P,Q3,3,G2*
G04 #@! TO.N,Net-(Q3-G2)*
X13500000Y-12100000D03*
G04 #@! TO.P,Q3,4,D2*
G04 #@! TO.N,/VCC*
X15900000Y-12100000D03*
G04 #@! TO.P,Q3,5,S1*
G04 #@! TO.N,GND*
X15900000Y-11150000D03*
G04 #@! TO.P,Q3,6,D1*
G04 #@! TO.N,/M_C*
X15900000Y-10200000D03*
G04 #@! TD*
D19*
G04 #@! TO.P,TP1,1,1*
G04 #@! TO.N,/C2CK*
X14700000Y-1200000D03*
G04 #@! TD*
D22*
G04 #@! TO.P,C3,1,1*
G04 #@! TO.N,GND*
X5950000Y-1200000D03*
G04 #@! TO.P,C3,2,2*
G04 #@! TO.N,/VCC*
X7950000Y-1200000D03*
G04 #@! TD*
D21*
G04 #@! TO.P,Q1,1,G1*
G04 #@! TO.N,Net-(Q1-G1)*
X13500000Y-2700000D03*
G04 #@! TO.P,Q1,2,S2*
G04 #@! TO.N,/M_A*
X13500000Y-3650000D03*
G04 #@! TO.P,Q1,3,G2*
G04 #@! TO.N,Net-(Q1-G2)*
X13500000Y-4600000D03*
G04 #@! TO.P,Q1,4,D2*
G04 #@! TO.N,/VCC*
X15900000Y-4600000D03*
G04 #@! TO.P,Q1,5,S1*
G04 #@! TO.N,GND*
X15900000Y-3650000D03*
G04 #@! TO.P,Q1,6,D1*
G04 #@! TO.N,/M_A*
X15900000Y-2700000D03*
G04 #@! TD*
D12*
G04 #@! TO.P,Q6,1,G1*
G04 #@! TO.N,unconnected-(Q6-G1-Pad1)*
X94300000Y13300000D03*
G04 #@! TO.P,Q6,2,S2*
G04 #@! TO.N,unconnected-(Q6-S2-Pad2)*
X95250000Y13300000D03*
G04 #@! TO.P,Q6,3,G2*
G04 #@! TO.N,unconnected-(Q6-G2-Pad3)*
X96200000Y13300000D03*
G04 #@! TO.P,Q6,4,D2*
G04 #@! TO.N,unconnected-(Q6-D2-Pad4)*
X96200000Y15600000D03*
G04 #@! TO.P,Q6,5,S1*
G04 #@! TO.N,unconnected-(Q6-S1-Pad5)*
X95250000Y15600000D03*
G04 #@! TO.P,Q6,6,D1*
G04 #@! TO.N,unconnected-(Q6-D1-Pad6)*
X94300000Y15600000D03*
G04 #@! TD*
D11*
G04 #@! TO.P,R2,1,1*
G04 #@! TO.N,/FCom*
X5100000Y-12050000D03*
G04 #@! TO.P,R2,2,2*
G04 #@! TO.N,/M_C*
X6600000Y-12050000D03*
G04 #@! TD*
G04 #@! TO.P,R1,1,1*
G04 #@! TO.N,/FCom*
X5700000Y-3200000D03*
G04 #@! TO.P,R1,2,2*
G04 #@! TO.N,/M_A*
X7200000Y-3200000D03*
G04 #@! TD*
D23*
G04 #@! TO.N,/C2CK*
X15118199Y-481801D03*
X17600000Y-12400000D03*
G04 #@! TO.N,/C2D*
X12250000Y-10563605D03*
X12700000Y-400000D03*
D24*
G04 #@! TO.N,GND*
X16650000Y-11150000D03*
X4700000Y-3700000D03*
X4700000Y-4400000D03*
X11300000Y-5300000D03*
X12200000Y-5600000D03*
G04 #@! TO.N,/VCC*
X14700000Y-12100000D03*
X9200000Y-1200000D03*
X14700000Y-8400000D03*
D23*
X8000000Y-9100000D03*
D24*
X10700000Y-11900000D03*
X14700000Y-4600000D03*
D23*
X10400000Y-9800000D03*
G04 #@! TO.N,/M_A*
X14600000Y-3000000D03*
X7900000Y-2700000D03*
G04 #@! TO.N,/M_B*
X14500000Y-6700000D03*
X7350000Y-10300000D03*
G04 #@! TO.N,/M_C*
X14525000Y-10525000D03*
X7350000Y-12050000D03*
G04 #@! TO.N,/FCom*
X5450000Y-7200000D03*
X4781801Y-6381801D03*
G04 #@! TO.N,Net-(U1-P0.2)*
X10600000Y-3700000D03*
X5550000Y-8100000D03*
G04 #@! TD*
D25*
G04 #@! TO.N,/C2CK*
X10200000Y-8800000D02*
X11400000Y-10000000D01*
X12700000Y-12800000D02*
X12300000Y-12400000D01*
X11400000Y-10000000D02*
X11400000Y-10350000D01*
X8450000Y-8850000D02*
X8480000Y-8880000D01*
X8450000Y-8400000D02*
X8450000Y-8850000D01*
X12300000Y-12400000D02*
X12300000Y-11250000D01*
X15118199Y-481801D02*
X14700000Y-900000D01*
X8480000Y-8880000D02*
X9340000Y-8880000D01*
X9420000Y-8800000D02*
X10200000Y-8800000D01*
X17600000Y-12400000D02*
X17200000Y-12800000D01*
X14700000Y-900000D02*
X14700000Y-1200000D01*
X17200000Y-12800000D02*
X12700000Y-12800000D01*
X9340000Y-8880000D02*
X9420000Y-8800000D01*
X12300000Y-11250000D02*
X11400000Y-10350000D01*
G04 #@! TO.N,/C2D*
X10100000Y-8300000D02*
X10070000Y-8330000D01*
X12700000Y-400000D02*
X11900000Y-1200000D01*
X10100000Y-8300000D02*
X10700000Y-8300000D01*
X12250000Y-9850000D02*
X12250000Y-10563605D01*
X10700000Y-8300000D02*
X12250000Y-9850000D01*
X10070000Y-8330000D02*
X8950000Y-8330000D01*
X11900000Y-1200000D02*
X11200000Y-1200000D01*
D26*
G04 #@! TO.N,GND*
X15900000Y-11150000D02*
X16650000Y-11150000D01*
D25*
X16650000Y-11150000D02*
X16700000Y-11200000D01*
D26*
G04 #@! TO.N,/VCC*
X15900000Y-8400000D02*
X14700000Y-8400000D01*
D27*
X11350000Y-11900000D02*
X11400000Y-11850000D01*
D28*
X7950000Y-1200000D02*
X9200000Y-1200000D01*
D25*
X7950000Y-8400000D02*
X7950000Y-8975000D01*
D26*
X15900000Y-12100000D02*
X14700000Y-12100000D01*
D27*
X10700000Y-11900000D02*
X11350000Y-11900000D01*
D25*
X7950000Y-9050000D02*
X8000000Y-9100000D01*
X10400000Y-11600000D02*
X10700000Y-11900000D01*
X10400000Y-9800000D02*
X10400000Y-11600000D01*
D26*
X15900000Y-4600000D02*
X14700000Y-4600000D01*
D25*
X7950000Y-8975000D02*
X7950000Y-9050000D01*
G04 #@! TO.N,/RC*
X3100000Y-8700000D02*
X5600000Y-6200000D01*
X2200000Y-8700000D02*
X3100000Y-8700000D01*
X5600000Y-6200000D02*
X6250000Y-6200000D01*
G04 #@! TO.N,Net-(Q1-G2)*
X13500000Y-4600000D02*
X8340686Y-4600000D01*
X7950000Y-4990686D02*
X7950000Y-5500000D01*
X8340686Y-4600000D02*
X7950000Y-4990686D01*
D26*
G04 #@! TO.N,/M_A*
X15900000Y-2700000D02*
X18194000Y-2700000D01*
D25*
X7900000Y-3200000D02*
X7200000Y-3200000D01*
D26*
X18194000Y-2700000D02*
X19558000Y-4064000D01*
D25*
X7900000Y-2700000D02*
X7900000Y-3200000D01*
X14600000Y-3000000D02*
X14600000Y-3025000D01*
D29*
X13475000Y-3650000D02*
X14425000Y-3650000D01*
X15375000Y-2700000D02*
X15900000Y-2700000D01*
X14425000Y-3650000D02*
X15375000Y-2700000D01*
D25*
X8700000Y-3200000D02*
X7900000Y-3200000D01*
X14600000Y-3025000D02*
X14737500Y-3162500D01*
G04 #@! TO.N,Net-(Q1-G1)*
X13500000Y-2700000D02*
X12600000Y-2700000D01*
X11100000Y-4200000D02*
X8175000Y-4200000D01*
X7450000Y-4925000D02*
X7450000Y-5500000D01*
X8175000Y-4200000D02*
X7450000Y-4925000D01*
X12600000Y-2700000D02*
X11100000Y-4200000D01*
G04 #@! TO.N,Net-(Q2-G2)*
X10450000Y-6200000D02*
X12600000Y-8350000D01*
X12600000Y-8350000D02*
X13500000Y-8350000D01*
X9150000Y-6200000D02*
X10450000Y-6200000D01*
D29*
G04 #@! TO.N,/M_B*
X14425000Y-7400000D02*
X14787500Y-7037500D01*
X15375000Y-6450000D02*
X15900000Y-6450000D01*
X13475000Y-7400000D02*
X14425000Y-7400000D01*
D25*
X14787500Y-6987500D02*
X14787500Y-7037500D01*
X6600000Y-10300000D02*
X8050000Y-10300000D01*
D26*
X15900000Y-6450000D02*
X19404000Y-6450000D01*
D25*
X14500000Y-6700000D02*
X14787500Y-6987500D01*
D29*
X14787500Y-7037500D02*
X15375000Y-6450000D01*
D26*
X19404000Y-6450000D02*
X19558000Y-6604000D01*
D25*
G04 #@! TO.N,Net-(Q2-G1)*
X8950000Y-5570000D02*
X10517057Y-5570000D01*
X10517057Y-5570000D02*
X11397057Y-6450000D01*
X11397057Y-6450000D02*
X13500000Y-6450000D01*
G04 #@! TO.N,Net-(Q3-G1)*
X10265686Y-6700000D02*
X13500000Y-9934314D01*
X9150000Y-6700000D02*
X10265686Y-6700000D01*
X13500000Y-9934314D02*
X13500000Y-10200000D01*
G04 #@! TO.N,/M_C*
X15400000Y-10200000D02*
X15900000Y-10200000D01*
D29*
X15200000Y-10400000D02*
X15300000Y-10300000D01*
D26*
X15900000Y-10200000D02*
X17500000Y-10200000D01*
D29*
X14450000Y-11150000D02*
X14800000Y-10800000D01*
D26*
X18502000Y-10200000D02*
X19558000Y-9144000D01*
X17500000Y-10200000D02*
X17900000Y-10200000D01*
D29*
X14800000Y-10800000D02*
X15200000Y-10400000D01*
D25*
X14525000Y-10525000D02*
X14800000Y-10800000D01*
D29*
X15200000Y-10400000D02*
X15400000Y-10200000D01*
X15300000Y-10300000D02*
X15800000Y-10300000D01*
X13500000Y-11150000D02*
X14450000Y-11150000D01*
D26*
X17500000Y-10200000D02*
X18502000Y-10200000D01*
D29*
X15800000Y-10300000D02*
X15900000Y-10200000D01*
D25*
X17900000Y-10200000D02*
X18100000Y-10000000D01*
X6600000Y-12050000D02*
X8100000Y-12050000D01*
G04 #@! TO.N,Net-(Q3-G2)*
X12700000Y-11800000D02*
X13000000Y-12100000D01*
X9150000Y-7200000D02*
X10200000Y-7200000D01*
X12700000Y-9700000D02*
X12700000Y-11800000D01*
X10200000Y-7200000D02*
X12700000Y-9700000D01*
X13000000Y-12100000D02*
X13500000Y-12100000D01*
G04 #@! TO.N,/FCom*
X5450000Y-7200000D02*
X6250000Y-7200000D01*
X5100000Y-10300000D02*
X5100000Y-7550000D01*
X5100000Y-12050000D02*
X5100000Y-10300000D01*
X5700000Y-5534314D02*
X4817157Y-6417157D01*
X5700000Y-3200000D02*
X5700000Y-5534314D01*
X5100000Y-7550000D02*
X5450000Y-7200000D01*
X4817157Y-6417157D02*
X4781801Y-6381801D01*
G04 #@! TO.N,Net-(U1-P0.2)*
X10600000Y-3700000D02*
X10600000Y-3600000D01*
X10600000Y-3600000D02*
X10200000Y-3200000D01*
X5950000Y-7700000D02*
X5550000Y-8100000D01*
X6250000Y-7700000D02*
X5950000Y-7700000D01*
G04 #@! TO.N,Net-(U1-P0.1)*
X9600000Y-12050000D02*
X8580000Y-11030000D01*
X5895000Y-11030000D02*
X5895000Y-8885000D01*
X8580000Y-11030000D02*
X5895000Y-11030000D01*
X5895000Y-8885000D02*
X6450000Y-8330000D01*
G04 #@! TO.N,Net-(U1-P0.0)*
X8820000Y-9570000D02*
X7170000Y-9570000D01*
X9550000Y-10300000D02*
X8820000Y-9570000D01*
X6950000Y-9350000D02*
X6950000Y-8400000D01*
X7170000Y-9570000D02*
X6950000Y-9350000D01*
G04 #@! TD*
G04 #@! TA.AperFunction,Conductor*
G04 #@! TO.N,GND*
G36*
X7096843Y-314852D02*
G01*
X7111195Y-349500D01*
X7102937Y-376723D01*
X7100448Y-380448D01*
X7056133Y-446769D01*
X7044500Y-505252D01*
X7044500Y-1894748D01*
X7056133Y-1953231D01*
X7073882Y-1979795D01*
X7100447Y-2019552D01*
X7127012Y-2037301D01*
X7166769Y-2063867D01*
X7225252Y-2075500D01*
X7225255Y-2075500D01*
X8674745Y-2075500D01*
X8674748Y-2075500D01*
X8733231Y-2063867D01*
X8799552Y-2019552D01*
X8843867Y-1953231D01*
X8846510Y-1939939D01*
X8867346Y-1908758D01*
X8894569Y-1900500D01*
X9268993Y-1900500D01*
X9404328Y-1873580D01*
X9531811Y-1820775D01*
X9646542Y-1744114D01*
X9671640Y-1719015D01*
X9706285Y-1704665D01*
X9740934Y-1719016D01*
X9754344Y-1744105D01*
X9761132Y-1778229D01*
X9805447Y-1844552D01*
X9832012Y-1862301D01*
X9871769Y-1888867D01*
X9930252Y-1900500D01*
X9930255Y-1900500D01*
X12469745Y-1900500D01*
X12469748Y-1900500D01*
X12528231Y-1888867D01*
X12594552Y-1844552D01*
X12638867Y-1778231D01*
X12650500Y-1719748D01*
X12650500Y-894766D01*
X12664851Y-860119D01*
X12772037Y-752932D01*
X12799020Y-739185D01*
X12802267Y-738671D01*
X12809657Y-737501D01*
X12809658Y-737500D01*
X12809661Y-737500D01*
X12908587Y-687095D01*
X12987095Y-608587D01*
X13037500Y-509661D01*
X13054869Y-400000D01*
X13048084Y-357164D01*
X13056839Y-320699D01*
X13088815Y-301103D01*
X13096481Y-300500D01*
X14737241Y-300500D01*
X14771889Y-314852D01*
X14786241Y-349500D01*
X14781700Y-368409D01*
X14781891Y-368472D01*
X14781102Y-370899D01*
X14780898Y-371750D01*
X14780699Y-372140D01*
X14780698Y-372142D01*
X14779012Y-382784D01*
X14765264Y-409763D01*
X14689880Y-485148D01*
X14655234Y-499500D01*
X13430252Y-499500D01*
X13371769Y-511133D01*
X13305447Y-555447D01*
X13269943Y-608584D01*
X13261133Y-621769D01*
X13249500Y-680252D01*
X13249500Y-1719748D01*
X13261133Y-1778231D01*
X13278882Y-1804795D01*
X13305447Y-1844552D01*
X13332012Y-1862301D01*
X13371769Y-1888867D01*
X13430252Y-1900500D01*
X13430255Y-1900500D01*
X15969745Y-1900500D01*
X15969748Y-1900500D01*
X16028231Y-1888867D01*
X16094552Y-1844552D01*
X16138867Y-1778231D01*
X16150500Y-1719748D01*
X16150500Y-680252D01*
X16138867Y-621769D01*
X16110438Y-579223D01*
X16094552Y-555447D01*
X16051105Y-526417D01*
X16028231Y-511133D01*
X15969748Y-499500D01*
X15969745Y-499500D01*
X15517721Y-499500D01*
X15483073Y-485148D01*
X15469324Y-458166D01*
X15467519Y-446769D01*
X15455699Y-372140D01*
X15455497Y-371745D01*
X15455474Y-371449D01*
X15454507Y-368471D01*
X15455221Y-368238D01*
X15452555Y-334358D01*
X15476911Y-305841D01*
X15499157Y-300500D01*
X20850500Y-300500D01*
X20885148Y-314852D01*
X20899500Y-349500D01*
X20899500Y-13350500D01*
X20885148Y-13385148D01*
X20850500Y-13399500D01*
X249500Y-13399500D01*
X214852Y-13385148D01*
X200500Y-13350500D01*
X200500Y-7254500D01*
X214852Y-7219852D01*
X249500Y-7205500D01*
X4051232Y-7205500D01*
X4085880Y-7219852D01*
X4100232Y-7254500D01*
X4085880Y-7289148D01*
X3093142Y-8281885D01*
X3058494Y-8296237D01*
X3023846Y-8281885D01*
X3011604Y-8261460D01*
X3009715Y-8255233D01*
X3007232Y-8247046D01*
X2909685Y-8064550D01*
X2778410Y-7904590D01*
X2618450Y-7773315D01*
X2435954Y-7675768D01*
X2237934Y-7615700D01*
X2032000Y-7595417D01*
X1826065Y-7615700D01*
X1826064Y-7615700D01*
X1628043Y-7675769D01*
X1445548Y-7773316D01*
X1285590Y-7904590D01*
X1154316Y-8064548D01*
X1056769Y-8247043D01*
X1056768Y-8247045D01*
X1056768Y-8247046D01*
X1054285Y-8255233D01*
X996700Y-8445064D01*
X996700Y-8445065D01*
X976417Y-8650999D01*
X976417Y-8651000D01*
X996700Y-8856934D01*
X996700Y-8856935D01*
X1009915Y-8900500D01*
X1056768Y-9054954D01*
X1154315Y-9237450D01*
X1285590Y-9397410D01*
X1445550Y-9528685D01*
X1628046Y-9626232D01*
X1826066Y-9686300D01*
X2032000Y-9706583D01*
X2237934Y-9686300D01*
X2435954Y-9626232D01*
X2618450Y-9528685D01*
X2778410Y-9397410D01*
X2909685Y-9237450D01*
X3007232Y-9054954D01*
X3013201Y-9035275D01*
X3036993Y-9006286D01*
X3060091Y-9000500D01*
X3139564Y-9000500D01*
X3166230Y-8993354D01*
X3215989Y-8980021D01*
X3284511Y-8940460D01*
X3340460Y-8884511D01*
X4715852Y-7509117D01*
X4750500Y-7494766D01*
X4785148Y-7509118D01*
X4799500Y-7543766D01*
X4799500Y-9620500D01*
X4785148Y-9655148D01*
X4750500Y-9669500D01*
X4675252Y-9669500D01*
X4622314Y-9680030D01*
X4616769Y-9681133D01*
X4550447Y-9725447D01*
X4506133Y-9791769D01*
X4494500Y-9850252D01*
X4494500Y-10749748D01*
X4506133Y-10808231D01*
X4522838Y-10833231D01*
X4550447Y-10874552D01*
X4577012Y-10892301D01*
X4616769Y-10918867D01*
X4675252Y-10930500D01*
X4750500Y-10930500D01*
X4785148Y-10944852D01*
X4799500Y-10979500D01*
X4799500Y-11370500D01*
X4785148Y-11405148D01*
X4750500Y-11419500D01*
X4675252Y-11419500D01*
X4616769Y-11431133D01*
X4550447Y-11475447D01*
X4507034Y-11540421D01*
X4506133Y-11541769D01*
X4494500Y-11600252D01*
X4494500Y-12499748D01*
X4506133Y-12558231D01*
X4507008Y-12559540D01*
X4550447Y-12624552D01*
X4577012Y-12642301D01*
X4616769Y-12668867D01*
X4675252Y-12680500D01*
X4675255Y-12680500D01*
X5524745Y-12680500D01*
X5524748Y-12680500D01*
X5583231Y-12668867D01*
X5649552Y-12624552D01*
X5693867Y-12558231D01*
X5705500Y-12499748D01*
X5705500Y-11600252D01*
X5693867Y-11541769D01*
X5665623Y-11499500D01*
X5649552Y-11475447D01*
X5609795Y-11448882D01*
X5583231Y-11431133D01*
X5524748Y-11419500D01*
X5524745Y-11419500D01*
X5449500Y-11419500D01*
X5414852Y-11405148D01*
X5400500Y-11370500D01*
X5400500Y-10979500D01*
X5414852Y-10944852D01*
X5449500Y-10930500D01*
X5524745Y-10930500D01*
X5524748Y-10930500D01*
X5535940Y-10928273D01*
X5572720Y-10935587D01*
X5593558Y-10966768D01*
X5594500Y-10976331D01*
X5594500Y-11069563D01*
X5614979Y-11145989D01*
X5614979Y-11145991D01*
X5643564Y-11195500D01*
X5654540Y-11214511D01*
X5710489Y-11270460D01*
X5779011Y-11310021D01*
X5814478Y-11319524D01*
X5855436Y-11330500D01*
X5855438Y-11330500D01*
X5934562Y-11330500D01*
X6125180Y-11330500D01*
X6159828Y-11344852D01*
X6174180Y-11379500D01*
X6159828Y-11414148D01*
X6134740Y-11427558D01*
X6116769Y-11431133D01*
X6050447Y-11475447D01*
X6007034Y-11540421D01*
X6006133Y-11541769D01*
X5994500Y-11600252D01*
X5994500Y-12499748D01*
X6006133Y-12558231D01*
X6007008Y-12559540D01*
X6050447Y-12624552D01*
X6077012Y-12642301D01*
X6116769Y-12668867D01*
X6175252Y-12680500D01*
X6175255Y-12680500D01*
X7024745Y-12680500D01*
X7024748Y-12680500D01*
X7083231Y-12668867D01*
X7149552Y-12624552D01*
X7193867Y-12558231D01*
X7205500Y-12499748D01*
X7205500Y-12439353D01*
X7219852Y-12404705D01*
X7254500Y-12390353D01*
X7262151Y-12390954D01*
X7350000Y-12404869D01*
X7437836Y-12390956D01*
X7474301Y-12399711D01*
X7493897Y-12431687D01*
X7494500Y-12439353D01*
X7494500Y-12499748D01*
X7506133Y-12558231D01*
X7507008Y-12559540D01*
X7550447Y-12624552D01*
X7577012Y-12642301D01*
X7616769Y-12668867D01*
X7675252Y-12680500D01*
X7675255Y-12680500D01*
X8524745Y-12680500D01*
X8524748Y-12680500D01*
X8583231Y-12668867D01*
X8649552Y-12624552D01*
X8693867Y-12558231D01*
X8705500Y-12499748D01*
X8705500Y-11698767D01*
X8719852Y-11664119D01*
X8754500Y-11649767D01*
X8789148Y-11664119D01*
X8980148Y-11855119D01*
X8994500Y-11889767D01*
X8994500Y-12499748D01*
X9006133Y-12558231D01*
X9007008Y-12559540D01*
X9050447Y-12624552D01*
X9077012Y-12642301D01*
X9116769Y-12668867D01*
X9175252Y-12680500D01*
X9175255Y-12680500D01*
X10024745Y-12680500D01*
X10024748Y-12680500D01*
X10083231Y-12668867D01*
X10149552Y-12624552D01*
X10193867Y-12558231D01*
X10205500Y-12499748D01*
X10205500Y-12373032D01*
X10219852Y-12338384D01*
X10254500Y-12324032D01*
X10289148Y-12338384D01*
X10331284Y-12380520D01*
X10331287Y-12380521D01*
X10331290Y-12380524D01*
X10468213Y-12459576D01*
X10468215Y-12459576D01*
X10468216Y-12459577D01*
X10588665Y-12491851D01*
X10620939Y-12500499D01*
X10620940Y-12500500D01*
X10620943Y-12500500D01*
X11267930Y-12500500D01*
X11267946Y-12500501D01*
X11270943Y-12500501D01*
X11429059Y-12500501D01*
X11581778Y-12459579D01*
X11581778Y-12459578D01*
X11581785Y-12459577D01*
X11581790Y-12459573D01*
X11582619Y-12459231D01*
X11584400Y-12458876D01*
X11584888Y-12458746D01*
X11584896Y-12458777D01*
X11601374Y-12455500D01*
X11849745Y-12455500D01*
X11849748Y-12455500D01*
X11908231Y-12443867D01*
X11929764Y-12429478D01*
X11966545Y-12422162D01*
X11997728Y-12442998D01*
X12004316Y-12457538D01*
X12019979Y-12515989D01*
X12019979Y-12515991D01*
X12044367Y-12558230D01*
X12045123Y-12559540D01*
X12059540Y-12584511D01*
X12459540Y-12984511D01*
X12515489Y-13040460D01*
X12584011Y-13080021D01*
X12619478Y-13089524D01*
X12660436Y-13100500D01*
X12660438Y-13100500D01*
X17239564Y-13100500D01*
X17266230Y-13093354D01*
X17315989Y-13080021D01*
X17384511Y-13040460D01*
X17440460Y-12984511D01*
X17672037Y-12752932D01*
X17699020Y-12739185D01*
X17702267Y-12738671D01*
X17709657Y-12737501D01*
X17709658Y-12737500D01*
X17709661Y-12737500D01*
X17808587Y-12687095D01*
X17887095Y-12608587D01*
X17937500Y-12509661D01*
X17954869Y-12400000D01*
X17937500Y-12290339D01*
X17887095Y-12191413D01*
X17808587Y-12112905D01*
X17808584Y-12112903D01*
X17709661Y-12062500D01*
X17600000Y-12045131D01*
X17490338Y-12062500D01*
X17391415Y-12112903D01*
X17391412Y-12112905D01*
X17312905Y-12191412D01*
X17312900Y-12191419D01*
X17262501Y-12290333D01*
X17262499Y-12290341D01*
X17260813Y-12300983D01*
X17247065Y-12327962D01*
X17089881Y-12485148D01*
X17055233Y-12499500D01*
X16649500Y-12499500D01*
X16614852Y-12485148D01*
X16600500Y-12450500D01*
X16600500Y-11730255D01*
X16600500Y-11730252D01*
X16588867Y-11671769D01*
X16562301Y-11632012D01*
X16544552Y-11605447D01*
X16503820Y-11578231D01*
X16478231Y-11561133D01*
X16419748Y-11549500D01*
X16419745Y-11549500D01*
X16160635Y-11549500D01*
X16136137Y-11542936D01*
X16131784Y-11540423D01*
X16131781Y-11540422D01*
X16131779Y-11540421D01*
X15979060Y-11499500D01*
X15979057Y-11499500D01*
X14785189Y-11499500D01*
X14750541Y-11485148D01*
X14736189Y-11450500D01*
X14750541Y-11415852D01*
X14821541Y-11344852D01*
X15045911Y-11120481D01*
X15045913Y-11120480D01*
X15401541Y-10764852D01*
X15436189Y-10750500D01*
X18574477Y-10750500D01*
X18652847Y-10729500D01*
X18714485Y-10712984D01*
X18736108Y-10700500D01*
X18840015Y-10640510D01*
X19292290Y-10188233D01*
X19326937Y-10173882D01*
X19341160Y-10175991D01*
X19352066Y-10179300D01*
X19558000Y-10199583D01*
X19763934Y-10179300D01*
X19961954Y-10119232D01*
X20144450Y-10021685D01*
X20304410Y-9890410D01*
X20435685Y-9730450D01*
X20533232Y-9547954D01*
X20593300Y-9349934D01*
X20613583Y-9144000D01*
X20593300Y-8938066D01*
X20533232Y-8740046D01*
X20435685Y-8557550D01*
X20304410Y-8397590D01*
X20144450Y-8266315D01*
X19961954Y-8168768D01*
X19763934Y-8108700D01*
X19558000Y-8088417D01*
X19352065Y-8108700D01*
X19352064Y-8108700D01*
X19154043Y-8168769D01*
X18971548Y-8266316D01*
X18811590Y-8397590D01*
X18680316Y-8557548D01*
X18582769Y-8740043D01*
X18522700Y-8938064D01*
X18522700Y-8938065D01*
X18502417Y-9143999D01*
X18502417Y-9144000D01*
X18522700Y-9349934D01*
X18522700Y-9349935D01*
X18526007Y-9360836D01*
X18522331Y-9398158D01*
X18513765Y-9409708D01*
X18288327Y-9635148D01*
X18253679Y-9649500D01*
X17572475Y-9649500D01*
X16419748Y-9649500D01*
X15380252Y-9649500D01*
X15323182Y-9660852D01*
X15321769Y-9661133D01*
X15255447Y-9705447D01*
X15211133Y-9771769D01*
X15199500Y-9830252D01*
X15199500Y-9830255D01*
X15199031Y-9832613D01*
X15198082Y-9832424D01*
X15181857Y-9862736D01*
X15175297Y-9867274D01*
X15154087Y-9879520D01*
X14954087Y-10079520D01*
X14799155Y-10234450D01*
X14764507Y-10248802D01*
X14735704Y-10239443D01*
X14733587Y-10237904D01*
X14634661Y-10187500D01*
X14525000Y-10170131D01*
X14415338Y-10187500D01*
X14316415Y-10237903D01*
X14316412Y-10237905D01*
X14284148Y-10270170D01*
X14249500Y-10284522D01*
X14214852Y-10270170D01*
X14200500Y-10235522D01*
X14200500Y-9830255D01*
X14200500Y-9830252D01*
X14188867Y-9771769D01*
X14157915Y-9725447D01*
X14144552Y-9705447D01*
X14095494Y-9672668D01*
X14078231Y-9661133D01*
X14019748Y-9649500D01*
X14019745Y-9649500D01*
X13660453Y-9649500D01*
X13625805Y-9635148D01*
X12974805Y-8984148D01*
X12960453Y-8949500D01*
X12974805Y-8914852D01*
X13009453Y-8900500D01*
X14019745Y-8900500D01*
X14019748Y-8900500D01*
X14078231Y-8888867D01*
X14144552Y-8844552D01*
X14171770Y-8803817D01*
X14202950Y-8782984D01*
X14239732Y-8790299D01*
X14247158Y-8796394D01*
X14331284Y-8880520D01*
X14331287Y-8880521D01*
X14331290Y-8880524D01*
X14468213Y-8959576D01*
X14468215Y-8959576D01*
X14468216Y-8959577D01*
X14588665Y-8991851D01*
X14620939Y-9000499D01*
X14620940Y-9000500D01*
X14620943Y-9000500D01*
X15979060Y-9000500D01*
X15979060Y-9000499D01*
X16131784Y-8959577D01*
X16169043Y-8938066D01*
X16222738Y-8907065D01*
X16247238Y-8900500D01*
X16419745Y-8900500D01*
X16419748Y-8900500D01*
X16478231Y-8888867D01*
X16544552Y-8844552D01*
X16588867Y-8778231D01*
X16600500Y-8719748D01*
X16600500Y-7980252D01*
X16588867Y-7921769D01*
X16561966Y-7881509D01*
X16544552Y-7855447D01*
X16497814Y-7824218D01*
X16478231Y-7811133D01*
X16419748Y-7799500D01*
X15979057Y-7799500D01*
X14710189Y-7799500D01*
X14675541Y-7785148D01*
X14661189Y-7750500D01*
X14675541Y-7715852D01*
X15376541Y-7014852D01*
X15411189Y-7000500D01*
X15827525Y-7000500D01*
X18549415Y-7000500D01*
X18584063Y-7014852D01*
X18592626Y-7026397D01*
X18680315Y-7190450D01*
X18811590Y-7350410D01*
X18971550Y-7481685D01*
X19154046Y-7579232D01*
X19352066Y-7639300D01*
X19558000Y-7659583D01*
X19763934Y-7639300D01*
X19961954Y-7579232D01*
X20144450Y-7481685D01*
X20304410Y-7350410D01*
X20435685Y-7190450D01*
X20533232Y-7007954D01*
X20593300Y-6809934D01*
X20613583Y-6604000D01*
X20593300Y-6398066D01*
X20533232Y-6200046D01*
X20435685Y-6017550D01*
X20304410Y-5857590D01*
X20144450Y-5726315D01*
X19961954Y-5628768D01*
X19763934Y-5568700D01*
X19558000Y-5548417D01*
X19352065Y-5568700D01*
X19352064Y-5568700D01*
X19154043Y-5628769D01*
X18971548Y-5726316D01*
X18811587Y-5857592D01*
X18791898Y-5881585D01*
X18758823Y-5899264D01*
X18754020Y-5899500D01*
X16419748Y-5899500D01*
X15380252Y-5899500D01*
X15321769Y-5911133D01*
X15255447Y-5955447D01*
X15211132Y-6021770D01*
X15201894Y-6068210D01*
X15181058Y-6099392D01*
X15178337Y-6101085D01*
X15160768Y-6111228D01*
X15135904Y-6125584D01*
X15129092Y-6129516D01*
X15129083Y-6129523D01*
X14811792Y-6446814D01*
X14777144Y-6461166D01*
X14742496Y-6446814D01*
X14708587Y-6412905D01*
X14708584Y-6412903D01*
X14609661Y-6362500D01*
X14500000Y-6345131D01*
X14390338Y-6362500D01*
X14291415Y-6412903D01*
X14291412Y-6412905D01*
X14284148Y-6420170D01*
X14249500Y-6434522D01*
X14214852Y-6420170D01*
X14200500Y-6385522D01*
X14200500Y-6080255D01*
X14200500Y-6080252D01*
X14188867Y-6021769D01*
X14149241Y-5962465D01*
X14144552Y-5955447D01*
X14103818Y-5928230D01*
X14078231Y-5911133D01*
X14019748Y-5899500D01*
X12980252Y-5899500D01*
X12921769Y-5911133D01*
X12855447Y-5955447D01*
X12820590Y-6007616D01*
X12811133Y-6021769D01*
X12799500Y-6080252D01*
X12799500Y-6080255D01*
X12799500Y-6100500D01*
X12785148Y-6135148D01*
X12750500Y-6149500D01*
X11541824Y-6149500D01*
X11507176Y-6135148D01*
X10701570Y-5329542D01*
X10701564Y-5329537D01*
X10670097Y-5311370D01*
X10650839Y-5300252D01*
X10633046Y-5289979D01*
X10633045Y-5289978D01*
X10633044Y-5289978D01*
X10556621Y-5269500D01*
X10556619Y-5269500D01*
X9353094Y-5269500D01*
X9318446Y-5255148D01*
X9311990Y-5245486D01*
X9311548Y-5245782D01*
X9264552Y-5175447D01*
X9224795Y-5148882D01*
X9198231Y-5131133D01*
X9139748Y-5119500D01*
X8760252Y-5119500D01*
X8706198Y-5130252D01*
X8701769Y-5131133D01*
X8635447Y-5175447D01*
X8591133Y-5241769D01*
X8579500Y-5300252D01*
X8579500Y-5839748D01*
X8585617Y-5870500D01*
X8591133Y-5898232D01*
X8615863Y-5935241D01*
X8623181Y-5972023D01*
X8615865Y-5989686D01*
X8611133Y-5996767D01*
X8611133Y-5996769D01*
X8599500Y-6055252D01*
X8599500Y-6344748D01*
X8611133Y-6403231D01*
X8611134Y-6403232D01*
X8624194Y-6422778D01*
X8631509Y-6459560D01*
X8624194Y-6477221D01*
X8611133Y-6496769D01*
X8599500Y-6555252D01*
X8599500Y-6844748D01*
X8611133Y-6903231D01*
X8611134Y-6903232D01*
X8624194Y-6922778D01*
X8631509Y-6959560D01*
X8624194Y-6977221D01*
X8611133Y-6996769D01*
X8599500Y-7055252D01*
X8599500Y-7344748D01*
X8611133Y-7403231D01*
X8611134Y-7403232D01*
X8624194Y-7422778D01*
X8631509Y-7459560D01*
X8624194Y-7477221D01*
X8611133Y-7496769D01*
X8599500Y-7555252D01*
X8599500Y-7555255D01*
X8599500Y-7800500D01*
X8585148Y-7835148D01*
X8550500Y-7849500D01*
X8305252Y-7849500D01*
X8246769Y-7861133D01*
X8227222Y-7874194D01*
X8190440Y-7881509D01*
X8172778Y-7874194D01*
X8153231Y-7861133D01*
X8094748Y-7849500D01*
X7805252Y-7849500D01*
X7746769Y-7861133D01*
X7680447Y-7905447D01*
X7648489Y-7953277D01*
X7636133Y-7971769D01*
X7624500Y-8030252D01*
X7624500Y-8769748D01*
X7633806Y-8816534D01*
X7636133Y-8828232D01*
X7636133Y-8828233D01*
X7641240Y-8835874D01*
X7649500Y-8863099D01*
X7649500Y-9068557D01*
X7648896Y-9076222D01*
X7645131Y-9100000D01*
X7657881Y-9180500D01*
X7663003Y-9212834D01*
X7654248Y-9249301D01*
X7622272Y-9268897D01*
X7614606Y-9269500D01*
X7314767Y-9269500D01*
X7280119Y-9255148D01*
X7264852Y-9239881D01*
X7250500Y-9205233D01*
X7250500Y-8863099D01*
X7258760Y-8835874D01*
X7263866Y-8828233D01*
X7263866Y-8828232D01*
X7263865Y-8828232D01*
X7263867Y-8828231D01*
X7275500Y-8769748D01*
X7275500Y-8030252D01*
X7263867Y-7971769D01*
X7228928Y-7919480D01*
X7219552Y-7905447D01*
X7172778Y-7874194D01*
X7153231Y-7861133D01*
X7094748Y-7849500D01*
X6849500Y-7849500D01*
X6814852Y-7835148D01*
X6800500Y-7800500D01*
X6800500Y-7555255D01*
X6800500Y-7555252D01*
X6788867Y-7496769D01*
X6775806Y-7477223D01*
X6768489Y-7440442D01*
X6775807Y-7422776D01*
X6788866Y-7403232D01*
X6788865Y-7403232D01*
X6788867Y-7403231D01*
X6800500Y-7344748D01*
X6800500Y-7055252D01*
X6788867Y-6996769D01*
X6775806Y-6977223D01*
X6768489Y-6940442D01*
X6775807Y-6922776D01*
X6788866Y-6903232D01*
X6788865Y-6903232D01*
X6788867Y-6903231D01*
X6800500Y-6844748D01*
X6800500Y-6555252D01*
X6788867Y-6496769D01*
X6775806Y-6477223D01*
X6768489Y-6440442D01*
X6775807Y-6422776D01*
X6788866Y-6403232D01*
X6788865Y-6403232D01*
X6788867Y-6403231D01*
X6800500Y-6344748D01*
X6800500Y-6099500D01*
X6814852Y-6064852D01*
X6849500Y-6050500D01*
X7094745Y-6050500D01*
X7094748Y-6050500D01*
X7153231Y-6038867D01*
X7172776Y-6025806D01*
X7209558Y-6018489D01*
X7227224Y-6025807D01*
X7246767Y-6038866D01*
X7246769Y-6038867D01*
X7305252Y-6050500D01*
X7305255Y-6050500D01*
X7594745Y-6050500D01*
X7594748Y-6050500D01*
X7653231Y-6038867D01*
X7672776Y-6025806D01*
X7709558Y-6018489D01*
X7727224Y-6025807D01*
X7746767Y-6038866D01*
X7746769Y-6038867D01*
X7805252Y-6050500D01*
X7805255Y-6050500D01*
X8094745Y-6050500D01*
X8094748Y-6050500D01*
X8153231Y-6038867D01*
X8219552Y-5994552D01*
X8263867Y-5928231D01*
X8275500Y-5869748D01*
X8275500Y-5130252D01*
X8273957Y-5122496D01*
X8281271Y-5085715D01*
X8287361Y-5078294D01*
X8450805Y-4914852D01*
X8485453Y-4900500D01*
X12750500Y-4900500D01*
X12785148Y-4914852D01*
X12799500Y-4949500D01*
X12799500Y-4969748D01*
X12811133Y-5028231D01*
X12828882Y-5054795D01*
X12855447Y-5094552D01*
X12867892Y-5102867D01*
X12921769Y-5138867D01*
X12980252Y-5150500D01*
X12980255Y-5150500D01*
X14019745Y-5150500D01*
X14019748Y-5150500D01*
X14078231Y-5138867D01*
X14144552Y-5094552D01*
X14188867Y-5028231D01*
X14188867Y-5028230D01*
X14191548Y-5024218D01*
X14193764Y-5025698D01*
X14213682Y-5005748D01*
X14251185Y-5005717D01*
X14267119Y-5016355D01*
X14331284Y-5080520D01*
X14331287Y-5080521D01*
X14331290Y-5080524D01*
X14468213Y-5159576D01*
X14468215Y-5159576D01*
X14468216Y-5159577D01*
X14588665Y-5191851D01*
X14620939Y-5200499D01*
X14620940Y-5200500D01*
X14620943Y-5200500D01*
X15979060Y-5200500D01*
X15979060Y-5200499D01*
X16131784Y-5159577D01*
X16136137Y-5157063D01*
X16160635Y-5150500D01*
X16419745Y-5150500D01*
X16419748Y-5150500D01*
X16478231Y-5138867D01*
X16544552Y-5094552D01*
X16588867Y-5028231D01*
X16600500Y-4969748D01*
X16600500Y-4230252D01*
X16588867Y-4171769D01*
X16562301Y-4132012D01*
X16544552Y-4105447D01*
X16503818Y-4078230D01*
X16478231Y-4061133D01*
X16419748Y-4049500D01*
X16419745Y-4049500D01*
X16160635Y-4049500D01*
X16136137Y-4042936D01*
X16131784Y-4040423D01*
X16131781Y-4040422D01*
X16131779Y-4040421D01*
X15979060Y-3999500D01*
X15979057Y-3999500D01*
X14760189Y-3999500D01*
X14725541Y-3985148D01*
X14711189Y-3950500D01*
X14725541Y-3915852D01*
X15376541Y-3264852D01*
X15411189Y-3250500D01*
X15827525Y-3250500D01*
X17945679Y-3250500D01*
X17980327Y-3264852D01*
X18493148Y-3777673D01*
X18507500Y-3812321D01*
X18507500Y-4933748D01*
X18519133Y-4992231D01*
X18528165Y-5005748D01*
X18563447Y-5058552D01*
X18583228Y-5071769D01*
X18629769Y-5102867D01*
X18688252Y-5114500D01*
X18688255Y-5114500D01*
X20427745Y-5114500D01*
X20427748Y-5114500D01*
X20486231Y-5102867D01*
X20552552Y-5058552D01*
X20596867Y-4992231D01*
X20608500Y-4933748D01*
X20608500Y-3194252D01*
X20596867Y-3135769D01*
X20570301Y-3096012D01*
X20552552Y-3069447D01*
X20512795Y-3042882D01*
X20486231Y-3025133D01*
X20427748Y-3013500D01*
X20427745Y-3013500D01*
X19306321Y-3013500D01*
X19271673Y-2999148D01*
X18532017Y-2259492D01*
X18532015Y-2259490D01*
X18532012Y-2259488D01*
X18532008Y-2259485D01*
X18406487Y-2187016D01*
X18406484Y-2187015D01*
X18309889Y-2161133D01*
X18295417Y-2157255D01*
X18266477Y-2149500D01*
X18266475Y-2149500D01*
X16419748Y-2149500D01*
X15380252Y-2149500D01*
X15321769Y-2161133D01*
X15255447Y-2205447D01*
X15211131Y-2271771D01*
X15201895Y-2318208D01*
X15181060Y-2349391D01*
X15178338Y-2351084D01*
X15129090Y-2379518D01*
X15129082Y-2379523D01*
X14825224Y-2683381D01*
X14790576Y-2697733D01*
X14768331Y-2692393D01*
X14709661Y-2662500D01*
X14600000Y-2645131D01*
X14490338Y-2662500D01*
X14391415Y-2712903D01*
X14391412Y-2712905D01*
X14312905Y-2791412D01*
X14312900Y-2791419D01*
X14293159Y-2830165D01*
X14264642Y-2854522D01*
X14227255Y-2851579D01*
X14202898Y-2823062D01*
X14200500Y-2807920D01*
X14200500Y-2330255D01*
X14200500Y-2330252D01*
X14188867Y-2271769D01*
X14162301Y-2232012D01*
X14144552Y-2205447D01*
X14104795Y-2178882D01*
X14078231Y-2161133D01*
X14019748Y-2149500D01*
X12980252Y-2149500D01*
X12921769Y-2161133D01*
X12855447Y-2205447D01*
X12819336Y-2259492D01*
X12811133Y-2271769D01*
X12799500Y-2330252D01*
X12799500Y-2330255D01*
X12799500Y-2350500D01*
X12785148Y-2385148D01*
X12750500Y-2399500D01*
X12560436Y-2399500D01*
X12484010Y-2419979D01*
X12484008Y-2419979D01*
X12424934Y-2454087D01*
X12424932Y-2454088D01*
X12415495Y-2459535D01*
X12415486Y-2459542D01*
X11020071Y-3854957D01*
X10985423Y-3869309D01*
X10950775Y-3854957D01*
X10936423Y-3820309D01*
X10937026Y-3812643D01*
X10937497Y-3809665D01*
X10937500Y-3809661D01*
X10954869Y-3700000D01*
X10937500Y-3590339D01*
X10887095Y-3491413D01*
X10885032Y-3489350D01*
X10877245Y-3479202D01*
X10840459Y-3415488D01*
X10819852Y-3394881D01*
X10805500Y-3360233D01*
X10805500Y-2750255D01*
X10805500Y-2750252D01*
X10793867Y-2691769D01*
X10762704Y-2645131D01*
X10749552Y-2625447D01*
X10709795Y-2598882D01*
X10683231Y-2581133D01*
X10624748Y-2569500D01*
X9775252Y-2569500D01*
X9716769Y-2581133D01*
X9650447Y-2625447D01*
X9625690Y-2662500D01*
X9606133Y-2691769D01*
X9594500Y-2750252D01*
X9594500Y-3649748D01*
X9606133Y-3708231D01*
X9619414Y-3728107D01*
X9650447Y-3774552D01*
X9689218Y-3800457D01*
X9702991Y-3809661D01*
X9703137Y-3809758D01*
X9723972Y-3840941D01*
X9716656Y-3877723D01*
X9685473Y-3898558D01*
X9675914Y-3899500D01*
X9224086Y-3899500D01*
X9189438Y-3885148D01*
X9175086Y-3850500D01*
X9189438Y-3815852D01*
X9196863Y-3809758D01*
X9197009Y-3809661D01*
X9249552Y-3774552D01*
X9293867Y-3708231D01*
X9305500Y-3649748D01*
X9305500Y-2750252D01*
X9293867Y-2691769D01*
X9262704Y-2645131D01*
X9249552Y-2625447D01*
X9209795Y-2598882D01*
X9183231Y-2581133D01*
X9124748Y-2569500D01*
X8275252Y-2569500D01*
X8275251Y-2569500D01*
X8267710Y-2571000D01*
X8230928Y-2563682D01*
X8214494Y-2545187D01*
X8187095Y-2491413D01*
X8108587Y-2412905D01*
X8108584Y-2412903D01*
X8009661Y-2362500D01*
X7900000Y-2345131D01*
X7790338Y-2362500D01*
X7691415Y-2412903D01*
X7691412Y-2412905D01*
X7612904Y-2491413D01*
X7597994Y-2520676D01*
X7586749Y-2542746D01*
X7558233Y-2567102D01*
X7543091Y-2569500D01*
X6775252Y-2569500D01*
X6716769Y-2581133D01*
X6650447Y-2625447D01*
X6625690Y-2662500D01*
X6606133Y-2691769D01*
X6594500Y-2750252D01*
X6594500Y-3649748D01*
X6606133Y-3708231D01*
X6619414Y-3728107D01*
X6650447Y-3774552D01*
X6676598Y-3792025D01*
X6716769Y-3818867D01*
X6775252Y-3830500D01*
X6775255Y-3830500D01*
X7624745Y-3830500D01*
X7624748Y-3830500D01*
X7683231Y-3818867D01*
X7749552Y-3774552D01*
X7793867Y-3708231D01*
X7805500Y-3649748D01*
X7805500Y-3549500D01*
X7819852Y-3514852D01*
X7854500Y-3500500D01*
X7860438Y-3500500D01*
X8045500Y-3500500D01*
X8080148Y-3514852D01*
X8094500Y-3549500D01*
X8094500Y-3649748D01*
X8106133Y-3708231D01*
X8119414Y-3728107D01*
X8150447Y-3774552D01*
X8189218Y-3800457D01*
X8202991Y-3809661D01*
X8203137Y-3809758D01*
X8223972Y-3840941D01*
X8216656Y-3877723D01*
X8185473Y-3898558D01*
X8175914Y-3899500D01*
X8135436Y-3899500D01*
X8059012Y-3919978D01*
X8059008Y-3919979D01*
X8023537Y-3940460D01*
X8015275Y-3945230D01*
X7990492Y-3959537D01*
X7990486Y-3959542D01*
X7209541Y-4740488D01*
X7209540Y-4740488D01*
X7169979Y-4809008D01*
X7169979Y-4809010D01*
X7149500Y-4885436D01*
X7149500Y-4900829D01*
X7135148Y-4935477D01*
X7100500Y-4949829D01*
X7095704Y-4949594D01*
X7094748Y-4949500D01*
X6805252Y-4949500D01*
X6746769Y-4961133D01*
X6680447Y-5005447D01*
X6636132Y-5071770D01*
X6634483Y-5080061D01*
X6613647Y-5111243D01*
X6586425Y-5119500D01*
X6260252Y-5119500D01*
X6206198Y-5130252D01*
X6201769Y-5131133D01*
X6135447Y-5175447D01*
X6090242Y-5243103D01*
X6059059Y-5263938D01*
X6022277Y-5256622D01*
X6001442Y-5225439D01*
X6000500Y-5215880D01*
X6000500Y-3879500D01*
X6014852Y-3844852D01*
X6049500Y-3830500D01*
X6124745Y-3830500D01*
X6124748Y-3830500D01*
X6183231Y-3818867D01*
X6249552Y-3774552D01*
X6293867Y-3708231D01*
X6305500Y-3649748D01*
X6305500Y-2750252D01*
X6293867Y-2691769D01*
X6262704Y-2645131D01*
X6249552Y-2625447D01*
X6209795Y-2598882D01*
X6183231Y-2581133D01*
X6124748Y-2569500D01*
X5275252Y-2569500D01*
X5216769Y-2581133D01*
X5150447Y-2625447D01*
X5125690Y-2662500D01*
X5106133Y-2691769D01*
X5094500Y-2750252D01*
X5094500Y-3649748D01*
X5106133Y-3708231D01*
X5119414Y-3728107D01*
X5150447Y-3774552D01*
X5176598Y-3792025D01*
X5216769Y-3818867D01*
X5275252Y-3830500D01*
X5350500Y-3830500D01*
X5385148Y-3844852D01*
X5399500Y-3879500D01*
X5399500Y-5389546D01*
X5385148Y-5424194D01*
X4793782Y-6015559D01*
X4766800Y-6029308D01*
X4672139Y-6044301D01*
X4573216Y-6094704D01*
X4573213Y-6094706D01*
X4494702Y-6173217D01*
X4494136Y-6173997D01*
X4493586Y-6174333D01*
X4491979Y-6175941D01*
X4491592Y-6175554D01*
X4462156Y-6193586D01*
X4425691Y-6184824D01*
X4406102Y-6152844D01*
X4405500Y-6145188D01*
X4405500Y-4442782D01*
X4404976Y-4428107D01*
X4404477Y-4421141D01*
X4402815Y-4405686D01*
X4402979Y-4405668D01*
X4402979Y-4394326D01*
X4402815Y-4394309D01*
X4402909Y-4393439D01*
X4404477Y-4378861D01*
X4404976Y-4371888D01*
X4405500Y-4357220D01*
X4405500Y-3742778D01*
X4404976Y-3728112D01*
X4404477Y-3721138D01*
X4402909Y-3706557D01*
X4402907Y-3706547D01*
X4402815Y-3705686D01*
X4402979Y-3705668D01*
X4402979Y-3694326D01*
X4402815Y-3694309D01*
X4402909Y-3693439D01*
X4404477Y-3678861D01*
X4404976Y-3671888D01*
X4405500Y-3657220D01*
X4405500Y-2549000D01*
X4389857Y-2470357D01*
X4385376Y-2459540D01*
X4375508Y-2435716D01*
X4375509Y-2435716D01*
X4338877Y-2377416D01*
X4264293Y-2324496D01*
X4229646Y-2310144D01*
X4229640Y-2310142D01*
X4197926Y-2303834D01*
X4151000Y-2294500D01*
X249500Y-2294500D01*
X214852Y-2280148D01*
X200500Y-2245500D01*
X200500Y-349500D01*
X214852Y-314852D01*
X249500Y-300500D01*
X7062195Y-300500D01*
X7096843Y-314852D01*
G37*
G04 #@! TD.AperFunction*
G04 #@! TD*
G04 #@! TA.AperFunction,Conductor*
G04 #@! TO.N,/VCC*
G36*
X4185648Y-2514352D02*
G01*
X4200000Y-2549000D01*
X4200000Y-3657220D01*
X4199501Y-3664193D01*
X4194353Y-3699998D01*
X4194353Y-3700001D01*
X4199501Y-3735804D01*
X4200000Y-3742778D01*
X4200000Y-4357220D01*
X4199501Y-4364193D01*
X4194353Y-4399998D01*
X4194353Y-4400001D01*
X4199501Y-4435804D01*
X4200000Y-4442778D01*
X4200000Y-6951000D01*
X4185648Y-6985648D01*
X4151000Y-7000000D01*
X249500Y-7000000D01*
X214852Y-6985648D01*
X200500Y-6951000D01*
X200500Y-2549000D01*
X214852Y-2514352D01*
X249500Y-2500000D01*
X4151000Y-2500000D01*
X4185648Y-2514352D01*
G37*
G04 #@! TD.AperFunction*
G04 #@! TD*
M02*
